#N canvas 43 89 450 300 10;
#X obj 169 92 t b f;
#X obj 183 141 -;
#X floatatom 183 164 5 0 0 0 - - -, f 5;
#X obj 169 64 inlet;
#X obj 183 186 outlet;
#X msg 169 114 15;
#X connect 0 0 5 0;
#X connect 0 1 1 1;
#X connect 1 0 2 0;
#X connect 2 0 4 0;
#X connect 3 0 0 0;
#X connect 5 0 1 0;
