#N canvas 344 166 728 363 10;
#X obj 234 95 inlet~;
#X obj 362 95 inlet~;
#X obj 56 27 inlet;
#X obj 233 192 *~;
#X obj 526 192 *~;
#X obj 232 220 expr~ (!$v1 ^ !$v2);
#X obj 411 220 expr~ ($v1 ^ $v2);
#X obj 411 192 *~;
#X obj 362 192 *~;
#X obj 56 54 sel 0 1 2;
#X obj 177 192 *~;
#X obj 178 277 outlet~;
#X msg 56 147 1 0 0;
#X obj 56 175 unpack f f f;
#X msg 76 119 0 1 0;
#X msg 96 91 0 0 1;
#X connect 0 0 3 0;
#X connect 0 0 7 0;
#X connect 0 0 10 0;
#X connect 1 0 4 0;
#X connect 1 0 8 0;
#X connect 2 0 9 0;
#X connect 3 0 5 0;
#X connect 4 0 6 1;
#X connect 5 0 11 0;
#X connect 6 0 11 0;
#X connect 7 0 6 0;
#X connect 8 0 5 1;
#X connect 9 0 12 0;
#X connect 9 1 14 0;
#X connect 9 2 15 0;
#X connect 10 0 11 0;
#X connect 12 0 13 0;
#X connect 13 0 10 1;
#X connect 13 1 3 1;
#X connect 13 1 8 1;
#X connect 13 2 4 1;
#X connect 13 2 7 1;
#X connect 14 0 13 0;
#X connect 15 0 13 0;
