#N canvas 332 182 728 363 10;
#X obj 234 95 inlet~;
#X obj 362 95 inlet~;
#X obj 56 27 inlet;
#X obj 385 247 *~;
#X obj 270 281 expr~ ($v1 ^ $v2);
#X obj 270 253 *~;
#X obj 177 232 *~;
#X obj 178 317 outlet~;
#X obj 56 175 unpack f f f;
#X obj 127 6 loadbang;
#X msg 127 29 0;
#X obj 56 54 sel 0 1;
#X msg 79 119 0 1;
#X msg 56 148 1 0;
#X connect 0 0 5 0;
#X connect 0 0 6 0;
#X connect 1 0 3 0;
#X connect 2 0 11 0;
#X connect 3 0 4 1;
#X connect 4 0 7 0;
#X connect 5 0 4 0;
#X connect 6 0 7 0;
#X connect 8 0 6 1;
#X connect 8 1 5 1;
#X connect 8 1 3 1;
#X connect 9 0 10 0;
#X connect 10 0 11 0;
#X connect 11 0 13 0;
#X connect 11 1 12 0;
#X connect 12 0 8 0;
#X connect 13 0 8 0;
