#N canvas 203 293 641 464 10;
#X obj 106 297 s topology0;
#X obj 137 277 s topology1;
#X obj 169 257 s topology2;
#X obj 441 398 dac~;
#X obj 106 234 unpack f f f f;
#X obj 276 292 r~ reg0-tap0;
#X obj 276 337 r~ reg1-tap0;
#X obj 276 387 r~ reg2-tap2;
#X obj 277 441 dac~;
#X obj 277 313 *~ 0.3;
#X obj 276 361 *~ 0.3;
#X obj 276 409 *~ 0.3;
#X obj 393 296 unpack f f;
#X msg 393 268 0 1;
#X msg 302 271 0.3 0;
#X obj 442 331 *~;
#X obj 280 251 sel 0 1;
#X obj 441 248 r~ four_xor_send;
#X msg 110 212 2 2 2 0;
#X msg 167 192 1 1 0 1;
#X msg 172 211 3 3 0 1;
#X msg 105 193 0 0 0 0;
#X obj 104 103 vradio 15 1 0 4 empty empty empty 0 -8 0 10 -262144
-1 -1 0;
#X text 123 102 0 0 0 0;
#X text 123 118 2 2 2 0;
#X text 123 134 1 1 0 1;
#X text 123 150 3 3 0 1;
#X obj 104 170 sel 0 1 2 3;
#X obj 490 367 throw~ reg0-inlet;
#X connect 4 0 0 0;
#X connect 4 1 1 0;
#X connect 4 2 2 0;
#X connect 4 3 16 0;
#X connect 5 0 9 0;
#X connect 6 0 10 0;
#X connect 7 0 11 0;
#X connect 9 0 8 0;
#X connect 9 0 8 1;
#X connect 10 0 8 0;
#X connect 10 0 8 1;
#X connect 11 0 8 0;
#X connect 11 0 8 1;
#X connect 12 0 9 1;
#X connect 12 0 10 1;
#X connect 12 0 11 1;
#X connect 12 1 15 1;
#X connect 13 0 12 0;
#X connect 14 0 12 0;
#X connect 15 0 3 0;
#X connect 15 0 3 1;
#X connect 15 0 28 0;
#X connect 16 1 14 0;
#X connect 16 2 13 0;
#X connect 17 0 15 0;
#X connect 18 0 4 0;
#X connect 19 0 4 0;
#X connect 20 0 4 0;
#X connect 21 0 4 0;
#X connect 22 0 27 0;
#X connect 27 0 21 0;
#X connect 27 1 18 0;
#X connect 27 2 19 0;
#X connect 27 3 20 0;
#X coords 0 -1 1 1 90 67 2 100 100;
