#N canvas 52 85 1311 687 10;
#X obj 849 447 shift_register_sixteen_bit~;
#X msg 156 38 1000;
#X msg 140 59 900;
#X msg 124 80 750;
#X msg 108 101 500;
#X msg 77 38 250;
#X msg 93 122 300;
#X msg 61 59 100;
#X msg 45 80 60;
#X msg 14 122 0;
#X msg 29 101 15;
#X obj 456 225 hradio 13 1 0 16 empty empty empty 0 -8 0 10 -262144
-1 -1 15;
#X obj 456 238 hradio 13 1 0 16 empty empty empty 0 -8 0 10 -262144
-1 -1 0;
#X floatatom 611 154 5 0 0 0 - - -, f 5;
#X msg 611 24 set \$1;
#X obj 456 157 hradio 15 1 0 10 empty empty empty 0 -8 0 10 -262144
-1 -1 1;
#X obj 14 18 sel 0 1 2 3 4 5 6 7 8 9;
#X obj 230 429 noise~;
#X obj 456 179 bng 14 250 50 0 empty empty empty 17 7 0 10 -262144
-1 -1;
#X floatatom 738 185 5 0 0 0 - - -, f 5;
#X obj 1093 447 shift_register_sixteen_bit~;
#X obj 830 473 signal_router_sixteen_bit;
#X obj 456 266 hradio 13 1 0 16 empty empty empty 0 -8 0 10 -262144
-1 -1 15;
#X obj 456 279 hradio 13 1 0 16 empty empty empty 0 -8 0 10 -262144
-1 -1 0;
#X obj 281 494 del;
#X obj 249 544 tgl 15 0 empty empty empty 17 7 0 10 -262144 -1 -1 0
1;
#X obj 249 473 t b b;
#X msg 281 515 0;
#X obj 231 563 *~;
#X floatatom 515 179 5 0 0 0 - - -, f 5;
#X obj 675 225 vradio 13 1 0 2 empty empty empty 0 -8 0 10 -262144
-1 -1 0;
#X obj 675 266 vradio 13 1 0 2 empty empty empty 0 -8 0 10 -262144
-1 -1 0;
#X obj 577 179 bng 14 250 50 0 empty empty empty 17 7 0 10 -262144
-1 -1;
#X floatatom 622 179 5 0 0 0 - - -, f 5;
#X text 472 179 NOISE;
#X text 593 179 OSC;
#X obj 230 451 lop~;
#X msg 249 516 1;
#X obj 85 402 del;
#X obj 53 452 tgl 15 0 empty empty empty 17 7 0 10 -262144 -1 -1 0
1;
#X obj 53 381 t b b;
#X msg 85 423 0;
#X obj 35 471 *~;
#X msg 53 424 1;
#X obj 34 337 osc~ 440;
#X floatatom 456 199 5 0 0 0 - - -, f 5;
#X text 494 199 LOWPASS;
#X floatatom 577 199 5 0 0 0 - - -, f 5;
#X text 620 199 FREQ;
#X text 554 180 ms;
#X text 660 180 ms;
#X text 650 153 DELAY;
#X obj 694 152 bng 15 250 50 0 empty empty empty 17 7 0 10 -262144
-1 -1;
#X text 712 153 OFF;
#X obj 683 178 bng 15 250 50 0 empty empty empty 17 7 0 10 -262144
-1 -1;
#X obj 683 198 bng 15 250 50 0 empty empty empty 17 7 0 10 -262144
-1 -1;
#X text 700 178 OPEN;
#X text 700 198 PLAY;
#X text 737 170 WHEEL;
#X obj 748 203 bng 15 250 50 0 empty empty empty 17 7 0 10 -262144
-1 -1;
#X obj 66 603 tabwrite~ display-\$0;
#X obj 66 581 r unimetro;
#N canvas 43 89 450 250 (subpatch) 0;
#X array display-\$0 330 float 1;
#A 0 1 0 1 0 0 1 1 0 0 0 0 0 0 1 1 0 1 1 1 1 1 1 1 0 0 1 1 1 1 0 1
1 1 1 0 1 0 0 1 1 0 0 1 0 1 0 1 0 1 1 1 1 0 1 1 1 1 0 0 0 0 1 0 1 0
0 1 1 0 0 1 0 1 0 0 1 1 1 1 1 0 0 0 0 1 0 1 0 0 0 0 1 1 1 0 1 1 1 0
1 1 0 1 1 0 1 1 1 1 1 0 0 0 0 0 1 0 0 1 1 0 1 1 1 1 0 1 0 1 0 0 0 1
0 1 0 0 1 1 0 1 1 1 1 0 0 1 0 0 0 0 1 0 0 0 0 0 1 1 0 1 0 1 1 1 1 1
1 0 0 1 0 0 0 1 0 1 1 0 0 1 1 1 0 1 0 0 1 0 0 1 1 0 1 1 0 1 1 0 0 0
1 0 0 1 0 1 0 0 1 0 1 0 1 0 0 1 0 1 1 1 1 0 0 0 1 1 0 0 0 1 1 1 1 0
0 0 1 0 1 1 0 0 1 1 1 1 1 1 0 0 0 0 1 0 0 1 0 1 0 1 0 0 1 1 0 1 0 0
0 0 0 0 1 0 1 0 1 1 0 1 0 1 0 0 0 0 1 0 1 0 0 0 1 1 1 1 0 1 0 1 1 1
0 1 1 1 1 1 0 1 1 0 0 0 0 1 1 1 1 0 0 0 0 1 0 1 0 1 1;
#X coords 0 1 329 0 330 100 2 0 0;
#X restore 451 379 graph;
#X obj 342 536 delread~ thisone\$0 0;
#X obj 729 244 vradio 13 1 0 2 empty empty empty 0 -8 0 10 -262144
-1 -1 1;
#X obj 694 130 r on-off-\$1;
#X obj 175 162 r noise-time-r-\$1;
#X obj 622 46 r osc-time-r-\$1;
#X obj 456 2 r delay-preset-r-\$1;
#X obj 70 182 r lowpass-r-\$1;
#X obj 68 213 s lowpass-s-\$1;
#X obj 456 24 r noise-trigger-r-\$1;
#X obj 456 46 s noise-trigger-s-\$1;
#X obj 249 385 r noise-trigger-s-\$1;
#X obj 299 472 r noise-time-s-\$1;
#X obj 254 407 r lowpass-s-\$1;
#X obj 177 185 s noise-time-s-\$1;
#X obj 14 -3 r delay-preset-s-\$1;
#X obj 306 162 s delay-preset-s-\$1;
#X obj 795 168 r wheel-r-\$1;
#X obj 795 199 s wheel-s-\$1;
#X obj 611 68 r delay-length-r-\$1;
#X obj 611 2 r delay-length-r-set-\$1;
#X obj 342 513 r delay-length-s-\$1;
#X obj 577 110 r osc-trigger-r-\$1;
#X obj 577 89 r osc-freq-r-\$1;
#X obj 305 193 s osc-trigger-s-\$1;
#X obj 305 235 s osc-time-s-\$1;
#X obj 305 214 s osc-freq-s-\$1;
#X obj 34 315 r osc-freq-s-\$1;
#X obj 175 229 s reg1-tap1-s-\$1;
#X obj 175 208 r reg1-tap1-r-\$1;
#X obj 175 250 r reg1-tap2-r-\$1;
#X obj 175 271 s reg1-tap2-s-\$1;
#X obj 830 331 r reg1-tap1-s-\$1;
#X obj 840 375 r reg1-tap2-s-\$1;
#X obj 53 359 r osc-trigger-s-\$1;
#X obj 103 380 r osc-time-s-\$1;
#X obj 305 263 r reg2-tap1-r-\$1;
#X obj 305 284 s reg2-tap1-s-\$1;
#X obj 305 305 r reg2-tap2-r-\$1;
#X obj 305 326 s reg2-tap2-s-\$1;
#X obj 1074 260 r reg2-tap1-s-\$1;
#X obj 1084 304 r reg2-tap2-s-\$1;
#X obj 888 193 s open-soundfile-s-\$1;
#X obj 888 213 s play-soundfile-s-\$1;
#X obj 424 621 soundfileplayer;
#X obj 475 578 r open-soundfile-s-\$1;
#X obj 526 599 r play-soundfile-s-\$1;
#X text 356 600 Load specific soundfile;
#X obj 1034 237 r wheel-s-\$1;
#X obj 830 353 16-flipper;
#X obj 840 397 16-flipper;
#X obj 1074 282 16-flipper;
#X obj 1084 327 16-flipper;
#X obj 805 546 r reg1-gate-s-\$1;
#X obj 779 594 r regboth-gate-s-\$1;
#X obj 1048 578 r reg2-gate-s-\$1;
#X obj 778 647 s~ bitwiser\$1-3;
#X obj 224 621 r~ delwrite\$1-r;
#X obj 342 558 s~ delread\$1-s;
#X obj 559 295 router \$1 \$2;
#X obj 35 499 s~ osc-\$1-s;
#X obj 231 591 s~ noise-\$1-s;
#X obj 424 644 s~ soundfile-\$1-s;
#X obj 889 168 s delay-length-s-\$1;
#X obj 27 556 r~ to-scope-\$1-r;
#X obj 14 143 s delay-length-r-\$1;
#X obj 786 251 s reg1-gate-s-\$1;
#X obj 786 292 s reg2-gate-s-\$1;
#X obj 786 270 s regboth-gate-s-\$1;
#X obj 217 17 loadbang;
#X obj 217 41 t b b b;
#X obj 195 126 s delay-preset-r-\$1;
#X msg 195 100 5;
#X obj 229 104 s osc-freq-r-\$1;
#X msg 229 83 600;
#X msg 263 62 100;
#X obj 263 82 s osc-time-r-\$1;
#X obj 301 15 bng 15 250 50 0 empty empty empty 17 7 0 10 -262144 -1
-1;
#X obj 1074 473 signal_router_sixteen_bit;
#X obj 814 89 loadbang;
#X msg 814 112 0;
#X obj 779 617 bitwiser;
#X text 691 222 Byp \; XOR;
#X text 691 263 Byp \; XOR;
#X text 745 241 Byp \; XOR;
#X obj 805 570 bitwiser;
#X obj 1048 601 bitwiser;
#X obj 850 422 catch~ reg1-\$1-entry;
#X obj 1094 422 catch~ reg2-\$1-entry;
#X obj 841 499 s~ reg1-\$1-tap1;
#X obj 961 499 s~ reg1-\$1-tap2;
#X obj 1081 499 s~ reg2-\$1-tap1;
#X obj 1201 499 s~ reg2-\$1-tap2;
#X obj 1034 546 s~ to-scope-\$1-r;
#X obj 970 27 r topology-\$1-r;
#X obj 224 644 delwrite~ thisone\$0 1000;
#X connect 0 0 21 2;
#X connect 0 1 21 3;
#X connect 0 2 21 4;
#X connect 0 3 21 5;
#X connect 0 4 21 6;
#X connect 0 5 21 7;
#X connect 0 6 21 8;
#X connect 0 7 21 9;
#X connect 0 8 21 10;
#X connect 0 9 21 11;
#X connect 0 10 21 12;
#X connect 0 11 21 13;
#X connect 0 12 21 14;
#X connect 0 13 21 15;
#X connect 0 14 21 16;
#X connect 0 15 21 17;
#X connect 0 15 155 0;
#X connect 1 0 127 0;
#X connect 2 0 127 0;
#X connect 3 0 127 0;
#X connect 4 0 127 0;
#X connect 5 0 127 0;
#X connect 6 0 127 0;
#X connect 7 0 127 0;
#X connect 8 0 127 0;
#X connect 9 0 127 0;
#X connect 10 0 127 0;
#X connect 11 0 90 0;
#X connect 12 0 93 0;
#X connect 13 0 125 0;
#X connect 14 0 13 0;
#X connect 15 0 78 0;
#X connect 16 0 9 0;
#X connect 16 1 10 0;
#X connect 16 2 8 0;
#X connect 16 3 7 0;
#X connect 16 4 5 0;
#X connect 16 5 6 0;
#X connect 16 6 4 0;
#X connect 16 7 3 0;
#X connect 16 8 2 0;
#X connect 16 9 1 0;
#X connect 17 0 36 0;
#X connect 18 0 72 0;
#X connect 19 0 80 0;
#X connect 20 0 140 2;
#X connect 20 1 140 3;
#X connect 20 2 140 4;
#X connect 20 3 140 5;
#X connect 20 4 140 6;
#X connect 20 5 140 7;
#X connect 20 6 140 8;
#X connect 20 7 140 9;
#X connect 20 8 140 10;
#X connect 20 9 140 11;
#X connect 20 10 140 12;
#X connect 20 11 140 13;
#X connect 20 12 140 14;
#X connect 20 13 140 15;
#X connect 20 14 140 16;
#X connect 20 15 140 17;
#X connect 21 0 147 1;
#X connect 21 0 151 0;
#X connect 21 1 147 2;
#X connect 21 1 152 0;
#X connect 22 0 99 0;
#X connect 23 0 101 0;
#X connect 24 0 27 0;
#X connect 25 0 28 1;
#X connect 26 0 37 0;
#X connect 26 1 24 0;
#X connect 27 0 25 0;
#X connect 28 0 123 0;
#X connect 29 0 76 0;
#X connect 30 0 128 0;
#X connect 31 0 129 0;
#X connect 32 0 86 0;
#X connect 33 0 87 0;
#X connect 36 0 28 0;
#X connect 37 0 25 0;
#X connect 38 0 41 0;
#X connect 39 0 42 1;
#X connect 40 0 43 0;
#X connect 40 1 38 0;
#X connect 41 0 39 0;
#X connect 42 0 122 0;
#X connect 43 0 39 0;
#X connect 44 0 42 0;
#X connect 45 0 70 0;
#X connect 47 0 88 0;
#X connect 54 0 104 0;
#X connect 55 0 105 0;
#X connect 59 0 19 0;
#X connect 61 0 60 0;
#X connect 63 0 120 0;
#X connect 64 0 130 0;
#X connect 65 0 52 0;
#X connect 66 0 29 0;
#X connect 67 0 33 0;
#X connect 68 0 15 0;
#X connect 69 0 45 0;
#X connect 71 0 18 0;
#X connect 73 0 26 0;
#X connect 74 0 24 1;
#X connect 75 0 36 1;
#X connect 77 0 16 0;
#X connect 79 0 19 0;
#X connect 81 0 13 0;
#X connect 82 0 14 0;
#X connect 83 0 63 0;
#X connect 84 0 32 0;
#X connect 85 0 47 0;
#X connect 89 0 44 0;
#X connect 91 0 11 0;
#X connect 92 0 12 0;
#X connect 94 0 111 0;
#X connect 95 0 112 0;
#X connect 96 0 40 0;
#X connect 97 0 38 1;
#X connect 98 0 22 0;
#X connect 100 0 23 0;
#X connect 102 0 113 0;
#X connect 103 0 114 0;
#X connect 106 0 124 0;
#X connect 107 0 106 1;
#X connect 108 0 106 2;
#X connect 110 0 0 1;
#X connect 111 0 21 0;
#X connect 112 0 21 1;
#X connect 113 0 140 0;
#X connect 114 0 140 1;
#X connect 115 0 147 0;
#X connect 116 0 143 0;
#X connect 117 0 148 0;
#X connect 119 0 157 0;
#X connect 126 0 60 0;
#X connect 131 0 132 0;
#X connect 132 0 134 0;
#X connect 132 1 136 0;
#X connect 132 2 137 0;
#X connect 134 0 133 0;
#X connect 136 0 135 0;
#X connect 137 0 138 0;
#X connect 139 0 132 0;
#X connect 140 0 148 1;
#X connect 140 0 153 0;
#X connect 140 1 148 2;
#X connect 140 1 154 0;
#X connect 141 0 142 0;
#X connect 142 0 30 0;
#X connect 142 0 64 0;
#X connect 142 0 31 0;
#X connect 142 0 11 0;
#X connect 142 0 12 0;
#X connect 142 0 22 0;
#X connect 142 0 23 0;
#X connect 143 0 118 0;
#X connect 147 0 143 1;
#X connect 148 0 143 2;
#X connect 149 0 0 0;
#X connect 150 0 20 0;
#X connect 156 0 121 0;
#X coords 0 -1 1 1 332 330 2 450 150;
