#N canvas 70 89 1272 687 10;
#X obj 517 388 shift_register_sixteen_bit~;
#X msg 1094 148 1000;
#X msg 1078 169 900;
#X msg 1062 190 750;
#X msg 1046 211 500;
#X msg 1015 148 250;
#X msg 1031 232 300;
#X msg 999 169 100;
#X msg 983 190 60;
#X msg 952 232 0;
#X msg 967 211 15;
#X obj 155 175 hradio 13 1 0 16 empty empty empty 0 -8 0 10 -262144
-1 -1 15;
#X obj 204 378 t b f;
#X obj 218 427 -;
#X msg 204 400 16;
#X floatatom 218 450 5 0 0 0 - - -, f 5;
#X obj 155 188 hradio 13 1 0 16 empty empty empty 0 -8 0 10 -262144
-1 -1 10;
#X obj 155 378 t b f;
#X obj 169 427 -;
#X msg 155 400 16;
#X floatatom 169 450 5 0 0 0 - - -, f 5;
#X floatatom 310 104 5 0 0 0 - - -, f 5;
#X msg 310 64 set \$1;
#X obj 310 43 r delay-length-\$1;
#X obj 952 253 s delay-length-\$1;
#X obj 518 157 r delay-length-\$1;
#X obj 155 104 hradio 15 1 0 10 empty empty empty 0 -8 0 10 -262144
-1 -1 3;
#X obj 952 119 sel 0 1 2 3 4 5 6 7 8 9;
#X obj 31 455 noise~;
#X obj 64 86 loadbang;
#X obj 155 130 bng 14 250 50 0 empty empty empty 17 7 0 10 -262144
-1 -1;
#X floatatom 437 136 5 0 0 0 - - -, f 5;
#X obj 727 388 shift_register_sixteen_bit~;
#X obj 720 444 signal_router_sixteen_bit;
#X obj 510 444 signal_router_sixteen_bit;
#X obj 155 225 hradio 13 1 0 16 empty empty empty 0 -8 0 10 -262144
-1 -1 15;
#X obj 155 238 hradio 13 1 0 16 empty empty empty 0 -8 0 10 -262144
-1 -1 11;
#X obj 254 378 t b f;
#X obj 268 427 -;
#X msg 254 400 16;
#X floatatom 268 450 5 0 0 0 - - -, f 5;
#X obj 304 378 t b f;
#X obj 318 427 -;
#X msg 304 400 16;
#X floatatom 318 450 5 0 0 0 - - -, f 5;
#X obj 82 526 del;
#X obj 50 576 tgl 15 0 empty empty empty 17 7 0 10 -262144 -1 -1 0
1;
#X obj 50 505 t b b;
#X msg 82 547 0;
#X obj 32 595 *~;
#X obj 483 479 bitwiser;
#X floatatom 214 130 5 0 0 0 - - -, f 5;
#X obj 368 175 vradio 13 1 0 3 empty empty empty 0 -8 0 10 -262144
-1 -1 3;
#X obj 368 225 vradio 13 1 0 3 empty empty empty 0 -8 0 10 -262144
-1 -1 1;
#X obj 276 130 bng 14 250 50 0 empty empty empty 17 7 0 10 -262144
-1 -1;
#X floatatom 321 130 5 0 0 0 - - -, f 5;
#X text 171 130 NOISE;
#X text 292 130 OSC;
#X obj 31 483 lop~;
#X msg 50 548 1;
#X obj 162 526 del;
#X obj 130 576 tgl 15 0 empty empty empty 17 7 0 10 -262144 -1 -1 0
1;
#X obj 130 505 t b b;
#X msg 162 547 0;
#X obj 112 595 *~;
#X msg 130 548 1;
#X obj 111 455 osc~ 440;
#X obj 155 206 hradio 14 1 0 3 empty empty empty 0 -8 0 10 -262144
-1 -1 1;
#X text 384 172 Byp \; XOR \; NOR;
#X text 384 222 Byp \; XOR \; NOR;
#X text 200 205 Byp/XOR/NOR;
#X floatatom 155 150 5 0 0 0 - - -, f 5;
#X text 193 150 LOWPASS;
#X floatatom 276 150 5 0 0 0 - - -, f 5;
#X text 319 150 FREQ;
#X text 253 131 ms;
#X text 359 131 ms;
#X obj 382 639 outlet~;
#X obj 693 483 bitwiser;
#X obj 457 511 bitwiser;
#X text 349 104 DELAY;
#X obj 393 103 bng 15 250 50 0 empty empty empty 17 7 0 10 -262144
-1 -1;
#X text 411 104 OFF;
#X obj 382 129 bng 15 250 50 0 empty empty empty 17 7 0 10 -262144
-1 -1;
#X obj 382 149 bng 15 250 50 0 empty empty empty 17 7 0 10 -262144
-1 -1;
#X text 399 129 OPEN;
#X text 399 149 PLAY;
#X obj 322 570 soundfileplayer;
#X text 287 549 Load default soundfile;
#X text 436 121 WHEEL;
#X obj 447 154 bng 15 250 50 0 empty empty empty 17 7 0 10 -262144
-1 -1;
#X obj 143 8 loadbang;
#X msg 143 37 7000;
#X msg 64 113 15;
#X obj 628 612 *~;
#X obj 457 612 *~;
#X obj 733 525 catch~ loop\$1;
#X obj 763 630 tabwrite~ display-\$0;
#X obj 763 600 r unimetro;
#X obj 540 545 unpack f f;
#X msg 547 520 1 0;
#N canvas 0 50 450 250 (subpatch) 0;
#X array display-\$0 330 float 1;
#A 0 0 1 0 0 0 0 0 1 0 0 1 0 1 0 1 1 0 0 0 0 0 0 0 0 0 1 1 0 1 0 1
0 0 1 0 0 0 0 0 1 0 0 1 1 1 1 1 1 0 0 0 1 0 1 0 0 0 1 1 0 1 0 1 0 0
1 0 0 0 0 0 1 0 0 1 1 1 1 1 1 0 0 0 1 0 1 0 0 0 1 1 0 0 0 0 1 1 0 1
1 0 1 0 1 0 0 1 1 1 1 1 1 0 0 0 1 1 1 1 1 1 0 0 1 0 1 0 1 1 0 1 1 0
1 0 1 0 0 1 1 1 1 1 1 0 0 0 1 1 1 1 1 1 0 0 1 0 1 0 1 1 0 1 1 1 1 1
1 0 0 1 1 0 1 0 1 0 0 0 1 1 1 1 1 1 0 0 1 0 0 0 0 0 1 0 0 0 1 0 1 0
0 1 1 0 1 0 1 0 0 0 1 1 1 1 1 1 0 0 1 0 0 0 0 0 1 0 0 0 1 0 1 0 0 1
1 0 0 0 0 0 0 0 1 1 0 1 0 1 0 0 1 0 0 0 0 0 1 0 0 0 0 0 0 0 0 1 1 0
1 0 1 0 0 0 1 1 0 1 0 1 0 0 1 0 0 0 0 0 1 0 0 0 0 0 0 0 0 1 1 0 1 0
1 0 0 0 1 1 0 0 0 0 1 1 0 1 1 0 1 0 1 0 0 0 0 0 0 0 0;
#X coords 0 1 329 0 330 100 1 0 0;
#X restore 150 270 graph;
#X obj 518 248 delread~ thisone\$0 0;
#X obj 456 639 delwrite~ thisone\$0 1000;
#X connect 0 0 34 2;
#X connect 0 1 34 3;
#X connect 0 2 34 4;
#X connect 0 3 34 5;
#X connect 0 4 34 6;
#X connect 0 5 34 7;
#X connect 0 6 34 8;
#X connect 0 7 34 9;
#X connect 0 8 34 10;
#X connect 0 9 34 11;
#X connect 0 10 34 12;
#X connect 0 11 34 13;
#X connect 0 12 34 14;
#X connect 0 13 34 15;
#X connect 0 14 34 16;
#X connect 0 15 34 17;
#X connect 1 0 24 0;
#X connect 2 0 24 0;
#X connect 3 0 24 0;
#X connect 4 0 24 0;
#X connect 5 0 24 0;
#X connect 6 0 24 0;
#X connect 7 0 24 0;
#X connect 8 0 24 0;
#X connect 9 0 24 0;
#X connect 10 0 24 0;
#X connect 11 0 12 0;
#X connect 12 0 14 0;
#X connect 12 1 13 1;
#X connect 13 0 15 0;
#X connect 14 0 13 0;
#X connect 15 0 34 0;
#X connect 16 0 17 0;
#X connect 17 0 19 0;
#X connect 17 1 18 1;
#X connect 18 0 20 0;
#X connect 19 0 18 0;
#X connect 20 0 34 1;
#X connect 21 0 102 0;
#X connect 22 0 21 0;
#X connect 23 0 22 0;
#X connect 25 0 102 0;
#X connect 26 0 27 0;
#X connect 27 0 9 0;
#X connect 27 1 10 0;
#X connect 27 2 8 0;
#X connect 27 3 7 0;
#X connect 27 4 5 0;
#X connect 27 5 6 0;
#X connect 27 6 4 0;
#X connect 27 7 3 0;
#X connect 27 8 2 0;
#X connect 27 9 1 0;
#X connect 28 0 58 0;
#X connect 29 0 93 0;
#X connect 30 0 47 0;
#X connect 31 0 0 1;
#X connect 32 0 33 2;
#X connect 32 1 33 3;
#X connect 32 2 33 4;
#X connect 32 3 33 5;
#X connect 32 4 33 6;
#X connect 32 5 33 7;
#X connect 32 6 33 8;
#X connect 32 7 33 9;
#X connect 32 8 33 10;
#X connect 32 9 33 11;
#X connect 32 10 33 12;
#X connect 32 11 33 13;
#X connect 32 12 33 14;
#X connect 32 13 33 15;
#X connect 32 14 33 16;
#X connect 32 15 33 17;
#X connect 33 0 78 1;
#X connect 33 1 78 2;
#X connect 34 0 50 1;
#X connect 34 1 50 2;
#X connect 35 0 37 0;
#X connect 36 0 41 0;
#X connect 37 0 39 0;
#X connect 37 1 38 1;
#X connect 38 0 40 0;
#X connect 39 0 38 0;
#X connect 40 0 33 0;
#X connect 41 0 43 0;
#X connect 41 1 42 1;
#X connect 42 0 44 0;
#X connect 43 0 42 0;
#X connect 44 0 33 1;
#X connect 45 0 48 0;
#X connect 46 0 49 1;
#X connect 47 0 59 0;
#X connect 47 1 45 0;
#X connect 48 0 46 0;
#X connect 49 0 94 0;
#X connect 49 0 95 0;
#X connect 50 0 79 1;
#X connect 51 0 45 1;
#X connect 52 0 50 0;
#X connect 53 0 78 0;
#X connect 54 0 62 0;
#X connect 55 0 60 1;
#X connect 58 0 49 0;
#X connect 59 0 46 0;
#X connect 60 0 63 0;
#X connect 61 0 64 1;
#X connect 62 0 65 0;
#X connect 62 1 60 0;
#X connect 63 0 61 0;
#X connect 64 0 94 0;
#X connect 64 0 95 0;
#X connect 65 0 61 0;
#X connect 66 0 64 0;
#X connect 67 0 79 0;
#X connect 71 0 58 1;
#X connect 73 0 66 0;
#X connect 78 0 79 2;
#X connect 79 0 94 0;
#X connect 79 0 95 0;
#X connect 83 0 87 1;
#X connect 84 0 87 2;
#X connect 87 0 94 0;
#X connect 87 0 95 0;
#X connect 90 0 31 0;
#X connect 91 0 92 0;
#X connect 92 0 73 0;
#X connect 92 0 71 0;
#X connect 93 0 51 0;
#X connect 93 0 55 0;
#X connect 95 0 77 0;
#X connect 95 0 97 0;
#X connect 95 0 103 0;
#X connect 96 0 103 0;
#X connect 98 0 97 0;
#X connect 99 0 95 1;
#X connect 99 1 94 1;
#X connect 100 0 99 0;
#X connect 102 0 0 0;
#X connect 102 0 32 0;
#X coords 0 -1 1 1 330 271 2 150 100;
