#N canvas 43 125 1278 616 10;
#X obj 300 388 shift_register_sixteen_bit~;
#X obj 460 122 hradio 14 1 0 33 empty empty empty 0 -8 0 10 -262144
-1 -1 5;
#X text 462 102 0 1 2 3 4 5 6 7 8 9 0 1 2 3 4 5 6 7 8 9 0 1 2 3 4 5
6 7 8 9;
#X obj 460 136 hradio 14 1 0 33 empty empty empty 0 -8 0 10 -262144
-1 -1 12;
#X obj 460 150 hradio 14 1 0 33 empty empty empty 0 -8 0 10 -262144
-1 -1 20;
#X obj 460 164 hradio 14 1 0 33 empty empty empty 0 -8 0 10 -228856
-1 -1 29;
#X obj 204 483 signal_router_sixteen_bit;
#X obj 680 388 shift_register_sixteen_bit~;
#X obj 394 483 signal_router_sixteen_bit;
#X obj 774 483 signal_router_sixteen_bit;
#X obj 584 483 signal_router_sixteen_bit;
#X obj 81 157 < 16;
#X obj 81 178 sel 1;
#X obj 81 199 t b b b;
#X msg 104 241 0;
#X msg 81 262 1;
#X msg 127 220 17;
#X obj 44 290 spigot;
#X obj 21 311 spigot;
#X obj 17 199 t b b b;
#X msg 40 241 0;
#X msg 17 262 1;
#X msg 63 220 17;
#X obj 21 136 t f f f;
#X obj 486 46 unpack f f f f;
#X obj 232 171 < 16;
#X obj 232 192 sel 1;
#X obj 232 213 t b b b;
#X msg 255 255 0;
#X msg 232 276 1;
#X msg 278 234 17;
#X obj 195 304 spigot;
#X obj 172 325 spigot;
#X obj 168 213 t b b b;
#X msg 191 255 0;
#X msg 168 276 1;
#X msg 214 234 17;
#X obj 172 150 t f f f;
#X obj 1011 185 < 16;
#X obj 1011 206 sel 1;
#X obj 1011 227 t b b b;
#X msg 1034 269 0;
#X msg 1011 290 1;
#X msg 1057 248 17;
#X obj 974 318 spigot;
#X obj 951 339 spigot;
#X obj 947 227 t b b b;
#X msg 970 269 0;
#X msg 947 290 1;
#X msg 993 248 17;
#X obj 951 164 t f f f;
#X obj 1162 199 < 16;
#X obj 1162 220 sel 1;
#X obj 1162 241 t b b b;
#X msg 1185 283 0;
#X msg 1162 304 1;
#X msg 1208 262 17;
#X obj 1125 332 spigot;
#X obj 1102 353 spigot;
#X obj 1098 241 t b b b;
#X msg 1121 283 0;
#X msg 1098 304 1;
#X msg 1144 262 17;
#X obj 1102 178 t f f f;
#X obj 584 307 - 16;
#X obj 594 328 - 16;
#X obj 774 328 - 16;
#X obj 784 349 - 16;
#X text 883 102 0 1 X;
#X obj 203 550 s~ reg\$1-tap0;
#X obj 375 578 s~ reg\$1-tap1;
#X obj 442 122 vradio 13 1 0 2 empty empty empty 0 -8 0 10 -262144
-1 -1 0;
#X obj 442 152 vradio 13 1 0 2 empty empty empty 0 -8 0 10 -262144
-1 -1 0;
#X obj 405 138 vradio 13 1 0 2 empty empty empty 0 -8 0 10 -262144
-1 -1 0;
#X obj 373 230 triple_bitwise \$1 \$2;
#X obj 393 550 s~ reg\$1-tap2;
#X obj 565 550 s~ reg\$1-tap3;
#X obj 689 584 delwrite~ buffer\$1 1000;
#X obj 1008 384 delread~ buffer\$1;
#X obj 688 547 *~;
#X obj 774 547 *~;
#X obj 1006 547 *~;
#X obj 1148 547 *~;
#X obj 1147 584 throw~ reg\$2-inlet;
#X obj 301 341 catch~ reg\$1-inlet;
#X obj 1006 584 throw~ reg\$1-inlet;
#X obj 864 547 *~;
#X obj 865 584 throw~ reg\$2-inlet;
#X obj 1104 530 unpack f f f f f;
#X floatatom 724 547 5 0 0 0 - - -, f 5;
#X floatatom 810 547 5 0 0 0 - - -, f 5;
#X floatatom 900 547 5 0 0 0 - - -, f 5;
#X floatatom 1042 547 5 0 0 0 - - -, f 5;
#X floatatom 1184 547 5 0 0 0 - - -, f 5;
#X msg 1104 482 1 0 0 1 0;
#X msg 1104 442 0 0 0 0 0;
#X text 1174 443 OFF;
#X text 1173 483 SINGLE;
#X msg 1104 462 0 0 1 0 0;
#X text 1174 464 BYPASS;
#X msg 1104 502 0 1 0 0 1;
#X text 1175 503 BYPASS DELAY;
#X obj 1104 422 sel 0 1 2 3;
#X obj 1104 402 r topology\$1;
#X obj 405 41 loadbang;
#X msg 405 69 0;
#X msg 486 19 5 12 20 29;
#X floatatom 302 122 5 0 0 0 - - -, f 5;
#X obj 306 139 bng 15 250 50 0 empty empty empty 17 7 0 10 -262144
-1 -1;
#X floatatom 341 123 5 0 0 0 - - -, f 5;
#X obj 302 158 nbx 4 20 -1e+37 1e+37 0 0 empty empty empty 0 -8 0 15
-262144 -1 -1 0 256;
#X text 424 123 B \; X;
#X text 424 150 B \; X;
#X text 387 136 B \; X;
#X obj 90 80 osc~ 440;
#X obj 136 113 *~;
#X obj 174 52 del 10;
#X obj 174 31 t b b;
#X msg 154 80 0;
#X msg 186 80 1;
#X connect 0 0 6 2;
#X connect 0 0 8 2;
#X connect 0 1 6 3;
#X connect 0 1 8 3;
#X connect 0 2 6 4;
#X connect 0 2 8 4;
#X connect 0 3 6 5;
#X connect 0 3 8 5;
#X connect 0 4 6 6;
#X connect 0 4 8 6;
#X connect 0 5 6 7;
#X connect 0 5 8 7;
#X connect 0 6 6 8;
#X connect 0 6 8 8;
#X connect 0 7 6 9;
#X connect 0 7 8 9;
#X connect 0 8 6 10;
#X connect 0 8 8 10;
#X connect 0 9 6 11;
#X connect 0 9 8 11;
#X connect 0 10 6 12;
#X connect 0 10 8 12;
#X connect 0 11 6 13;
#X connect 0 11 8 13;
#X connect 0 12 6 14;
#X connect 0 12 8 14;
#X connect 0 13 6 15;
#X connect 0 13 8 15;
#X connect 0 14 6 16;
#X connect 0 14 8 16;
#X connect 0 15 6 17;
#X connect 0 15 8 17;
#X connect 0 15 7 0;
#X connect 1 0 23 0;
#X connect 3 0 37 0;
#X connect 4 0 50 0;
#X connect 5 0 63 0;
#X connect 6 0 69 0;
#X connect 6 1 70 0;
#X connect 7 0 9 2;
#X connect 7 0 10 2;
#X connect 7 1 9 3;
#X connect 7 1 10 3;
#X connect 7 2 9 4;
#X connect 7 2 10 4;
#X connect 7 3 9 5;
#X connect 7 3 10 5;
#X connect 7 4 9 6;
#X connect 7 4 10 6;
#X connect 7 5 9 7;
#X connect 7 5 10 7;
#X connect 7 6 9 8;
#X connect 7 6 10 8;
#X connect 7 7 9 9;
#X connect 7 7 10 9;
#X connect 7 8 9 10;
#X connect 7 8 10 10;
#X connect 7 9 9 11;
#X connect 7 9 10 11;
#X connect 7 10 9 12;
#X connect 7 10 10 12;
#X connect 7 11 9 13;
#X connect 7 11 10 13;
#X connect 7 12 9 14;
#X connect 7 12 10 14;
#X connect 7 13 9 15;
#X connect 7 13 10 15;
#X connect 7 14 9 16;
#X connect 7 14 10 16;
#X connect 7 15 9 17;
#X connect 7 15 10 17;
#X connect 8 0 75 0;
#X connect 8 1 76 0;
#X connect 8 1 80 0;
#X connect 8 1 86 0;
#X connect 9 0 75 0;
#X connect 9 1 76 0;
#X connect 9 1 80 0;
#X connect 9 1 86 0;
#X connect 10 0 69 0;
#X connect 10 1 70 0;
#X connect 11 0 12 0;
#X connect 12 0 13 0;
#X connect 12 1 19 0;
#X connect 13 0 15 0;
#X connect 13 1 14 0;
#X connect 13 2 16 0;
#X connect 14 0 17 1;
#X connect 15 0 18 1;
#X connect 16 0 10 0;
#X connect 17 0 64 0;
#X connect 18 0 6 0;
#X connect 19 0 21 0;
#X connect 19 1 20 0;
#X connect 19 2 22 0;
#X connect 20 0 18 1;
#X connect 21 0 17 1;
#X connect 22 0 6 0;
#X connect 23 0 18 0;
#X connect 23 1 17 0;
#X connect 23 2 11 0;
#X connect 24 0 1 0;
#X connect 24 1 3 0;
#X connect 24 2 4 0;
#X connect 24 3 5 0;
#X connect 25 0 26 0;
#X connect 26 0 27 0;
#X connect 26 1 33 0;
#X connect 27 0 29 0;
#X connect 27 1 28 0;
#X connect 27 2 30 0;
#X connect 28 0 31 1;
#X connect 29 0 32 1;
#X connect 30 0 10 1;
#X connect 31 0 65 0;
#X connect 32 0 6 1;
#X connect 33 0 35 0;
#X connect 33 1 34 0;
#X connect 33 2 36 0;
#X connect 34 0 32 1;
#X connect 35 0 31 1;
#X connect 36 0 6 1;
#X connect 37 0 32 0;
#X connect 37 1 31 0;
#X connect 37 2 25 0;
#X connect 38 0 39 0;
#X connect 39 0 40 0;
#X connect 39 1 46 0;
#X connect 40 0 42 0;
#X connect 40 1 41 0;
#X connect 40 2 43 0;
#X connect 41 0 44 1;
#X connect 42 0 45 1;
#X connect 43 0 9 0;
#X connect 44 0 66 0;
#X connect 45 0 8 0;
#X connect 46 0 48 0;
#X connect 46 1 47 0;
#X connect 46 2 49 0;
#X connect 47 0 45 1;
#X connect 48 0 44 1;
#X connect 49 0 8 0;
#X connect 50 0 45 0;
#X connect 50 1 44 0;
#X connect 50 2 38 0;
#X connect 51 0 52 0;
#X connect 52 0 53 0;
#X connect 52 1 59 0;
#X connect 53 0 55 0;
#X connect 53 1 54 0;
#X connect 53 2 56 0;
#X connect 54 0 57 1;
#X connect 55 0 58 1;
#X connect 56 0 9 1;
#X connect 57 0 67 0;
#X connect 58 0 8 1;
#X connect 59 0 61 0;
#X connect 59 1 60 0;
#X connect 59 2 62 0;
#X connect 60 0 58 1;
#X connect 61 0 57 1;
#X connect 62 0 8 1;
#X connect 63 0 58 0;
#X connect 63 1 57 0;
#X connect 63 2 51 0;
#X connect 64 0 10 0;
#X connect 65 0 10 1;
#X connect 66 0 9 0;
#X connect 67 0 9 1;
#X connect 71 0 74 0;
#X connect 72 0 74 1;
#X connect 73 0 74 2;
#X connect 74 0 79 0;
#X connect 78 0 81 0;
#X connect 78 0 82 0;
#X connect 79 0 77 0;
#X connect 80 0 77 0;
#X connect 81 0 85 0;
#X connect 82 0 83 0;
#X connect 84 0 0 0;
#X connect 86 0 87 0;
#X connect 88 0 89 0;
#X connect 88 1 90 0;
#X connect 88 2 91 0;
#X connect 88 3 92 0;
#X connect 88 4 93 0;
#X connect 89 0 79 1;
#X connect 90 0 80 1;
#X connect 91 0 86 1;
#X connect 92 0 81 1;
#X connect 93 0 82 1;
#X connect 94 0 88 0;
#X connect 95 0 88 0;
#X connect 98 0 88 0;
#X connect 100 0 88 0;
#X connect 102 0 95 0;
#X connect 102 1 98 0;
#X connect 102 2 94 0;
#X connect 102 3 100 0;
#X connect 103 0 102 0;
#X connect 104 0 105 0;
#X connect 104 0 106 0;
#X connect 105 0 73 0;
#X connect 105 0 71 0;
#X connect 105 0 72 0;
#X connect 106 0 24 0;
#X connect 107 0 114 0;
#X connect 108 0 117 0;
#X connect 109 0 0 1;
#X connect 110 0 78 0;
#X connect 114 0 115 0;
#X connect 115 0 0 0;
#X connect 116 0 118 0;
#X connect 117 0 116 0;
#X connect 117 1 119 0;
#X connect 118 0 115 1;
#X connect 119 0 115 1;
#X coords 0 -1 1 1 620 56 2 302 122;
