#N canvas 82 132 947 593 10;
#X obj 418 360 shift_register_sixteen_bit~;
#X obj 402 509 dac~;
#X obj 438 446 expr~ ($v1 ^ $v2);
#X obj 419 297 delread~ thisone 0;
#X msg 579 147 1000;
#X msg 563 168 900;
#X msg 547 189 750;
#X msg 531 210 500;
#X msg 500 147 250;
#X msg 516 231 300;
#X msg 484 168 100;
#X msg 468 189 60;
#X msg 437 231 0;
#X msg 452 210 15;
#X obj 358 549 delwrite~ thisone 1000;
#X obj 104 166 hradio 13 1 0 16 empty empty empty 0 -8 0 10 -262144
-1 -1 15;
#X obj 104 328 t b f;
#X obj 118 377 -;
#X msg 104 350 16;
#X floatatom 118 400 5 0 0 0 - - -, f 5;
#X obj 104 183 hradio 13 1 0 16 empty empty empty 0 -8 0 10 -262144
-1 -1 15;
#X obj 104 435 t b f;
#X obj 118 484 -;
#X msg 104 457 16;
#X floatatom 118 507 5 0 0 0 - - -, f 5;
#X floatatom 307 105 5 0 0 0 - - -, f 5;
#X msg 307 65 set \$1;
#X obj 307 44 r delay-length-\$1;
#X obj 437 252 s delay-length-\$1;
#X obj 419 276 r delay-length-\$1;
#X obj 104 104 hradio 15 1 0 10 empty empty empty 0 -8 0 10 -262144
-1 -1 4;
#X obj 437 118 sel 0 1 2 3 4 5 6 7 8 9;
#X obj 178 231 noise~;
#X text 36 6 - button for random noise \; - button to stop everything
\, lower delay \, then raise again.;
#X obj 313 454 bng 15 250 50 0 empty empty empty 17 7 0 10 -262144
-1 -1;
#X obj 351 469 tgl 15 0 empty empty empty 17 7 0 10 -262144 -1 -1 0
1;
#X obj 333 488 *~;
#X floatatom 130 136 5 0 0 0 - - -, f 5;
#X obj 351 448 del;
#X obj 39 68 loadbang;
#X msg 41 102 10;
#X text 169 137 noise ms;
#X obj 111 135 bng 15 250 50 0 empty empty empty 17 7 0 10 -262144
-1 -1;
#X floatatom 619 43 5 0 0 0 - - -, f 5;
#X obj 597 62 bng 15 250 50 0 empty empty empty 17 7 0 10 -262144 -1
-1;
#X floatatom 662 116 5 0 0 0 - - -, f 5;
#X msg 657 150 set \$1;
#X floatatom 650 184 5 0 0 0 - - -, f 5;
#X obj 218 308 *~ 5;
#X obj 132 272 osc~ 2040;
#X obj 648 360 shift_register_sixteen_bit~;
#X obj 644 450 expr~ ($v1 ^ $v2);
#X obj 641 411 signal_router_sixteen_bit;
#X floatatom 675 308 5 0 0 0 - - -, f 5;
#X floatatom 724 300 5 0 0 0 - - -, f 5;
#X obj 411 411 signal_router_sixteen_bit;
#X obj 511 505 expr~ ($v1 ^ $v2);
#X connect 0 0 55 2;
#X connect 0 1 55 3;
#X connect 0 2 55 4;
#X connect 0 3 55 5;
#X connect 0 4 55 6;
#X connect 0 5 55 7;
#X connect 0 6 55 8;
#X connect 0 7 55 9;
#X connect 0 8 55 10;
#X connect 0 9 55 11;
#X connect 0 10 55 12;
#X connect 0 11 55 13;
#X connect 0 12 55 14;
#X connect 0 13 55 15;
#X connect 0 14 55 16;
#X connect 0 15 55 17;
#X connect 2 0 56 0;
#X connect 3 0 0 0;
#X connect 3 0 50 0;
#X connect 4 0 28 0;
#X connect 5 0 28 0;
#X connect 6 0 28 0;
#X connect 7 0 28 0;
#X connect 8 0 28 0;
#X connect 9 0 28 0;
#X connect 10 0 28 0;
#X connect 11 0 28 0;
#X connect 12 0 28 0;
#X connect 13 0 28 0;
#X connect 15 0 16 0;
#X connect 16 0 18 0;
#X connect 16 1 17 1;
#X connect 17 0 19 0;
#X connect 18 0 17 0;
#X connect 19 0 55 0;
#X connect 20 0 21 0;
#X connect 21 0 23 0;
#X connect 21 1 22 1;
#X connect 22 0 24 0;
#X connect 23 0 22 0;
#X connect 24 0 55 1;
#X connect 25 0 3 0;
#X connect 26 0 25 0;
#X connect 27 0 26 0;
#X connect 29 0 3 0;
#X connect 30 0 31 0;
#X connect 31 0 12 0;
#X connect 31 1 13 0;
#X connect 31 2 11 0;
#X connect 31 3 10 0;
#X connect 31 4 8 0;
#X connect 31 5 9 0;
#X connect 31 6 7 0;
#X connect 31 7 6 0;
#X connect 31 8 5 0;
#X connect 31 9 4 0;
#X connect 34 0 35 0;
#X connect 34 0 38 0;
#X connect 35 0 36 1;
#X connect 36 0 14 0;
#X connect 36 0 1 0;
#X connect 36 0 1 1;
#X connect 37 0 38 1;
#X connect 38 0 35 0;
#X connect 39 0 40 0;
#X connect 40 0 37 0;
#X connect 42 0 34 0;
#X connect 43 0 44 0;
#X connect 44 0 47 0;
#X connect 45 0 46 0;
#X connect 46 0 47 0;
#X connect 47 0 0 1;
#X connect 48 0 36 0;
#X connect 49 0 48 0;
#X connect 50 0 52 2;
#X connect 50 1 52 3;
#X connect 50 2 52 4;
#X connect 50 3 52 5;
#X connect 50 4 52 6;
#X connect 50 5 52 7;
#X connect 50 6 52 8;
#X connect 50 7 52 9;
#X connect 50 8 52 10;
#X connect 50 9 52 11;
#X connect 50 10 52 12;
#X connect 50 11 52 13;
#X connect 50 12 52 14;
#X connect 50 13 52 15;
#X connect 50 14 52 16;
#X connect 50 15 52 17;
#X connect 51 0 56 1;
#X connect 52 0 51 0;
#X connect 52 1 51 1;
#X connect 53 0 52 0;
#X connect 54 0 52 1;
#X connect 55 0 2 0;
#X connect 55 1 2 1;
#X connect 56 0 1 0;
#X connect 56 0 1 1;
#X connect 56 0 14 0;
#X coords 0 -1 1 1 250 100 2 100 100;
