#N canvas 52 142 1234 603 10;
#X obj 938 545 s~ delwrite\$1-r;
#X obj 56 423 *~;
#X obj 939 507 *~;
#X obj 818 455 r~ bitwiser\$1-3;
#X text 699 541 Next Unit;
#X obj 566 369 r~ delread\$1-s;
#X obj 413 472 *~;
#X obj 1089 546 s~ dac\$1-s;
#X obj 566 476 *~;
#X text 37 20 1 Normal mode \; - Bitwiser3 to delwrite and dac \; -
Delread to Reg1 & Reg2 \; 2 Double length mode \; - Reg1 to Reg2 \;
- Bitwiser3 to delwrite and dac \; - delread to Reg1 \; 3 Single length
Feed-forward \; - Bitwiser3 to Next Unit \; 4 Double length Feed-forward
\; - Reg1 to Reg2 \; - Reg2 to Next Unit \;;
#X text 36 178 5 Calculator \; - Reg2 to calculator \; - Calculator
to delwrite and dac \; - delread to next unit \;;
#X obj 746 511 *~;
#X obj 655 474 *~;
#X obj 500 51 vradio 13 1 0 6 empty empty empty 0 -8 0 10 -262144 -1
-1 13;
#X obj 500 12 inlet;
#X obj 944 10 r~ osc-\$1-s;
#X obj 945 54 r~ noise-\$1-s;
#X obj 946 98 r~ soundfile-\$1-s;
#X text 83 424 Reg1 to Reg2;
#X text 440 472 delread to Reg1;
#X text 503 496 delread to next unit;
#X text 686 475 Reg2 to next unit;
#X text 775 511 bitwiser to next unit;
#X obj 1088 369 r~ from-calc;
#X obj 1088 507 *~;
#X obj 947 119 throw~ synth-input-\$1;
#X obj 945 31 throw~ synth-input-\$1;
#X obj 946 75 throw~ synth-input-\$1;
#X obj 391 370 catch~ synth-input-\$1;
#X obj 78 462 *~;
#X obj 307 -1 loadbang;
#X msg 307 34 0;
#X obj 123 495 *~;
#X text 78 516 delread to Reg2;
#X text 107 463 synth to Reg2;
#X obj 500 145 sel 0 1 2 3 4 5;
#X obj 565 539 throw~ nextunit\$2;
#X obj 56 370 r~ reg1-\$1-tap1;
#X obj 56 535 throw~ reg2-\$1-entry;
#X obj 654 442 r~ reg2-\$1-tap2;
#X obj 204 476 *~;
#X text 1091 483 Calculator to d&d;
#X text 967 507 Bitwiser to d&d \;;
#X obj 327 473 *~;
#X text 174 496 Next to Reg2;
#X text 311 455 Next to Reg1;
#X obj 391 535 throw~ reg1-\$1-entry;
#X obj 243 369 catch~ nextunit\$1;
#X obj 500 324 unpack f f f f f f f f f f f;
#X msg 500 302 0 1 1 0 0 1 0 0 0 1 0;
#X msg 517 280 1 0 0 0 0 1 0 0 0 1 0;
#X msg 534 257 0 1 1 1 1 0 0 1 0 0 0;
#X msg 551 234 0 1 0 1 1 0 1 0 0 0 1;
#X msg 585 188 1 0 0 0 1 0 1 0 0 0 1;
#X msg 568 211 1 0 0 0 1 0 0 1 0 0 1;
#X text 516 50 Single \; Double \; Single FF \; To Calc S \; Double
FF \; To Calc 2x;
#X connect 1 0 38 0;
#X connect 2 0 0 0;
#X connect 2 0 7 0;
#X connect 3 0 2 0;
#X connect 3 0 11 0;
#X connect 5 0 6 0;
#X connect 5 0 8 0;
#X connect 5 0 32 0;
#X connect 6 0 46 0;
#X connect 8 0 36 0;
#X connect 11 0 36 0;
#X connect 12 0 36 0;
#X connect 13 0 35 0;
#X connect 14 0 13 0;
#X connect 15 0 26 0;
#X connect 16 0 27 0;
#X connect 17 0 25 0;
#X connect 23 0 24 0;
#X connect 24 0 0 0;
#X connect 24 0 7 0;
#X connect 28 0 29 0;
#X connect 28 0 46 0;
#X connect 29 0 38 0;
#X connect 30 0 31 0;
#X connect 31 0 13 0;
#X connect 32 0 38 0;
#X connect 35 0 49 0;
#X connect 35 1 50 0;
#X connect 35 2 51 0;
#X connect 35 3 52 0;
#X connect 35 4 54 0;
#X connect 35 5 53 0;
#X connect 37 0 1 0;
#X connect 39 0 12 0;
#X connect 40 0 38 0;
#X connect 43 0 46 0;
#X connect 47 0 40 0;
#X connect 47 0 43 0;
#X connect 48 0 1 1;
#X connect 48 1 29 1;
#X connect 48 2 32 1;
#X connect 48 3 40 1;
#X connect 48 4 43 1;
#X connect 48 5 6 1;
#X connect 48 6 8 1;
#X connect 48 7 12 1;
#X connect 48 8 11 1;
#X connect 48 9 2 1;
#X connect 48 10 24 1;
#X connect 49 0 48 0;
#X connect 50 0 48 0;
#X connect 51 0 48 0;
#X connect 52 0 48 0;
#X connect 53 0 48 0;
#X connect 54 0 48 0;
#X coords 0 -1 1 1 97 80 2 500 50;
