#N canvas 187 140 1131 382 10;
#X obj 763 270 s~ delwrite\$1-r;
#X obj 205 93 r~ delread\$1-s;
#X obj 80 96 r~ reg\$1-s-1;
#X obj 536 103 r~ reg\$1-s-2;
#X obj 416 283 s~ reg\$1-r-1;
#X obj 82 184 s~ reg\$1-r-2;
#X obj 81 143 *~;
#X obj 535 171 *~;
#X obj 535 283 s~ reg\$2-r-1;
#X obj 764 211 *~;
#X obj 764 154 r~ bitwiser\$1-3;
#X text 543 269 Next Unit;
#X obj 329 116 r~ delread\$1-s;
#X obj 330 174 *~;
#X obj 331 283 s~ dac\$1-s;
#X text 25 22 - Reg1 to Reg2 & Reg2 to next unit \; - Reg1 to Reg2
& Reg2 to output and input to delwrite and delread to next unit \;
- Bitwiser3 to delwrite \, delread to Reg1 and dac \;;
#X obj 610 176 *~;
#X obj 611 232 s~ calculator-s;
#X obj 810 182 r~ calculator-r;
#X obj 810 211 *~;
#X obj 426 177 *~;
#X obj 205 139 *~;
#X connect 1 0 21 0;
#X connect 2 0 6 0;
#X connect 3 0 7 0;
#X connect 3 0 16 0;
#X connect 6 0 5 0;
#X connect 7 0 8 0;
#X connect 9 0 0 0;
#X connect 10 0 9 0;
#X connect 12 0 13 0;
#X connect 12 0 20 0;
#X connect 13 0 4 0;
#X connect 13 0 14 0;
#X connect 16 0 17 0;
#X connect 18 0 19 0;
#X connect 19 0 0 0;
#X connect 20 0 8 0;
#X connect 21 0 4 0;
