#N canvas 206 153 1131 586 10;
#X obj 729 541 s~ delwrite\$1-r;
#X obj 92 355 r~ reg\$1-s-1;
#X obj 434 361 r~ reg\$1-s-2;
#X obj 244 509 s~ reg\$1-r-1;
#X obj 92 510 s~ reg\$1-r-2;
#X obj 92 462 *~;
#X obj 403 509 s~ reg\$2-r-1;
#X obj 728 501 *~;
#X obj 597 411 r~ bitwiser\$1-3;
#X text 414 530 Next Unit;
#X obj 304 358 r~ delread\$1-s;
#X obj 244 461 *~;
#X obj 849 541 s~ dac\$1-s;
#X obj 403 423 *~;
#X text 37 20 1 Normal mode \; - Bitwiser3 to delwrite and dac \; -
Delread to Reg1 & Reg2 \; 2 Double length mode \; - Reg1 to Reg2 \;
- Bitwiser3 to delwrite and dac \; - delread to Reg1 \; 3 Single length
Feed-forward \; - Bitwiser3 to Next Unit \; 4 Double length Feed-forward
\; - Reg1 to Reg2 \; - Reg2 to Next Unit \;;
#X text 36 178 5 Calculator \; - Reg2 to calculator \; - Calculator
to delwrite and dac \; - delread to next unit \;;
#X obj 538 478 *~;
#X obj 435 454 *~;
#X obj 503 53 vradio 13 1 0 5 empty empty empty 0 -8 0 10 -262144 -1
-1 0;
#X text 519 52 Single \; Double \; Single FF \; Double FF \; Calc \;
;
#X obj 503 21 inlet;
#X obj 658 31 r~ osc-\$1-s;
#X obj 794 119 r~ noise-\$1-s;
#X obj 833 26 r~ soundfile-\$1-s;
#X obj 599 535 s~ to-scope-\$1-r;
#X text 119 463 Reg1 to Reg2;
#X text 272 462 delread to Reg1;
#X text 441 424 delread to next unit;
#X text 466 455 Reg2 to next unit;
#X text 566 480 bitwiser to next unit;
#X obj 794 479 s~ to-calc;
#X obj 793 445 *~;
#X text 826 447 Reg2 to calc;
#X obj 939 453 r~ from-calc;
#X obj 939 483 *~;
#X obj 426 138 sel 0 1 2 3 4;
#X obj 834 67 throw~ synth-input-\$1;
#X obj 659 72 throw~ synth-input-\$1;
#X obj 795 160 throw~ synth-input-\$1;
#X obj 903 304 catch~ synth-input-\$1;
#X obj 917 352 *~;
#X msg 426 273 0 1 0 0 0 1 0 0 1;
#X msg 443 251 1 1 0 0 0 1 0 0 0;
#X obj 426 300 unpack f f f f f f f f f;
#X msg 460 230 0 0 0 0 1 0 0 0 1;
#X msg 477 207 1 0 0 1 0 0 0 0 0;
#X msg 494 184 1 0 1 0 0 0 1 1 0;
#X obj 344 35 loadbang;
#X msg 340 63 0;
#X obj 91 394 delwrite~ another\$0 0;
#X obj 93 417 delread~ another\$0 0;
#X connect 1 0 49 0;
#X connect 2 0 17 0;
#X connect 2 0 31 0;
#X connect 5 0 4 0;
#X connect 7 0 0 0;
#X connect 7 0 12 0;
#X connect 8 0 7 0;
#X connect 8 0 16 0;
#X connect 8 0 24 0;
#X connect 10 0 11 0;
#X connect 10 0 13 0;
#X connect 11 0 3 0;
#X connect 11 0 4 0;
#X connect 13 0 6 0;
#X connect 16 0 6 0;
#X connect 17 0 6 0;
#X connect 18 0 35 0;
#X connect 20 0 18 0;
#X connect 21 0 37 0;
#X connect 22 0 38 0;
#X connect 23 0 36 0;
#X connect 31 0 30 0;
#X connect 33 0 34 0;
#X connect 34 0 0 0;
#X connect 34 0 12 0;
#X connect 35 0 41 0;
#X connect 35 1 42 0;
#X connect 35 2 44 0;
#X connect 35 3 45 0;
#X connect 35 4 46 0;
#X connect 39 0 40 0;
#X connect 39 0 3 0;
#X connect 40 0 4 0;
#X connect 41 0 43 0;
#X connect 42 0 43 0;
#X connect 43 0 5 1;
#X connect 43 1 11 1;
#X connect 43 2 13 1;
#X connect 43 3 17 1;
#X connect 43 4 16 1;
#X connect 43 5 7 1;
#X connect 43 6 31 1;
#X connect 43 7 34 1;
#X connect 43 8 40 1;
#X connect 44 0 43 0;
#X connect 47 0 48 0;
#X connect 48 0 18 0;
#X connect 50 0 5 0;
#X coords 0 -1 1 1 95 72 2 500 50;
