#N canvas 64 180 1234 586 10;
#X obj 768 535 s~ delwrite\$1-r;
#X obj 56 310 r~ reg\$1-s-1;
#X obj 539 309 r~ reg\$1-s-2;
#X obj 244 509 s~ reg\$1-r-1;
#X obj 56 505 s~ reg\$1-r-2;
#X obj 56 363 *~;
#X obj 345 509 s~ reg\$2-r-1;
#X obj 769 447 *~;
#X obj 798 309 r~ bitwiser\$1-3;
#X text 356 530 Next Unit;
#X obj 346 309 r~ delread\$1-s;
#X obj 283 412 *~;
#X obj 949 536 s~ dac\$1-s;
#X obj 345 374 *~;
#X text 37 20 1 Normal mode \; - Bitwiser3 to delwrite and dac \; -
Delread to Reg1 & Reg2 \; 2 Double length mode \; - Reg1 to Reg2 \;
- Bitwiser3 to delwrite and dac \; - delread to Reg1 \; 3 Single length
Feed-forward \; - Bitwiser3 to Next Unit \; 4 Double length Feed-forward
\; - Reg1 to Reg2 \; - Reg2 to Next Unit \;;
#X text 36 178 5 Calculator \; - Reg2 to calculator \; - Calculator
to delwrite and dac \; - delread to next unit \;;
#X obj 659 407 *~;
#X obj 435 414 *~;
#X obj 503 53 vradio 13 1 0 5 empty empty empty 0 -8 0 10 -262144 -1
-1 0;
#X text 519 52 Single \; Double \; Single FF \; Double FF \; Calc \;
;
#X obj 503 21 inlet;
#X obj 944 10 r~ osc-\$1-s;
#X obj 945 54 r~ noise-\$1-s;
#X obj 946 98 r~ soundfile-\$1-s;
#X obj 799 366 s~ to-scope-\$1-r;
#X text 83 364 Reg1 to Reg2;
#X text 310 412 delread to Reg1;
#X text 351 355 delread to next unit;
#X text 466 415 Reg2 to next unit;
#X text 688 407 bitwiser to next unit;
#X obj 541 382 s~ to-calc;
#X obj 540 348 *~;
#X text 573 350 Reg2 to calc;
#X obj 948 309 r~ from-calc;
#X obj 948 447 *~;
#X obj 503 125 sel 0 1 2 3 4;
#X obj 947 119 throw~ synth-input-\$1;
#X obj 945 31 throw~ synth-input-\$1;
#X obj 946 75 throw~ synth-input-\$1;
#X obj 185 310 catch~ synth-input-\$1;
#X obj 78 402 *~;
#X obj 307 -1 loadbang;
#X msg 307 36 0;
#X obj 123 435 *~;
#X obj 500 263 unpack f f f f f f f f f f;
#X text 153 437 delread to Reg2;
#X text 107 403 synth to Reg2;
#X msg 503 237 0 1 1 1 0 0 0 0 1 0;
#X text 797 447 Bitwiser to delwrite \; and dac;
#X text 977 447 Calculator to delwrite \; and dac;
#X msg 520 215 1 0 0 1 0 0 0 0 1 0;
#X connect 1 0 5 0;
#X connect 2 0 17 0;
#X connect 2 0 31 0;
#X connect 5 0 4 0;
#X connect 7 0 0 0;
#X connect 7 0 12 0;
#X connect 8 0 7 0;
#X connect 8 0 16 0;
#X connect 8 0 24 0;
#X connect 10 0 11 0;
#X connect 10 0 13 0;
#X connect 10 0 43 0;
#X connect 11 0 3 0;
#X connect 13 0 6 0;
#X connect 16 0 6 0;
#X connect 17 0 6 0;
#X connect 18 0 35 0;
#X connect 20 0 18 0;
#X connect 21 0 37 0;
#X connect 22 0 38 0;
#X connect 23 0 36 0;
#X connect 31 0 30 0;
#X connect 33 0 34 0;
#X connect 34 0 0 0;
#X connect 34 0 12 0;
#X connect 35 0 47 0;
#X connect 35 1 50 0;
#X connect 39 0 40 0;
#X connect 39 0 3 0;
#X connect 40 0 4 0;
#X connect 41 0 42 0;
#X connect 42 0 18 0;
#X connect 43 0 4 0;
#X connect 44 0 5 1;
#X connect 44 1 40 1;
#X connect 44 2 43 1;
#X connect 44 3 11 1;
#X connect 44 4 13 1;
#X connect 44 5 17 1;
#X connect 44 6 31 1;
#X connect 44 7 16 1;
#X connect 44 8 7 1;
#X connect 44 9 34 1;
#X connect 47 0 44 0;
#X connect 50 0 44 0;
#X coords 0 -1 1 1 95 72 2 500 50;
