#N canvas 227 125 1131 586 10;
#X obj 729 541 s~ delwrite\$1-r;
#X obj 92 355 r~ reg\$1-s-1;
#X obj 434 361 r~ reg\$1-s-2;
#X obj 244 509 s~ reg\$1-r-1;
#X obj 92 510 s~ reg\$1-r-2;
#X obj 92 462 *~;
#X obj 403 509 s~ reg\$2-r-1;
#X obj 728 501 *~;
#X obj 597 411 r~ bitwiser\$1-3;
#X text 414 530 Next Unit;
#X obj 304 358 r~ delread\$1-s;
#X obj 244 461 *~;
#X obj 849 541 s~ dac\$1-s;
#X obj 403 423 *~;
#X text 37 20 1 Normal mode \; - Bitwiser3 to delwrite and dac \; -
Delread to Reg1 & Reg2 \; 2 Double length mode \; - Reg1 to Reg2 \;
- Bitwiser3 to delwrite and dac \; - delread to Reg1 \; 3 Single length
Feed-forward \; - Bitwiser3 to Next Unit \; 4 Double length Feed-forward
\; - Reg1 to Reg2 \; - Reg2 to Next Unit \;;
#X text 36 178 5 Calculator \; - Reg2 to calculator \; - Calculator
to delwrite and dac \; - delread to next unit \;;
#X obj 538 478 *~;
#X obj 435 454 *~;
#X obj 503 103 vradio 13 1 0 5 empty empty empty 0 -8 0 10 -262144
-1 -1 1;
#X text 519 102 Single \; Double \; Single FF \; Double FF \; Calc
\;;
#X obj 503 41 inlet;
#X obj 187 281 r~ osc-\$1-s;
#X obj 275 281 r~ noise-\$1-s;
#X obj 699 165 r~ soundfile-\$1-s;
#X obj 599 535 s~ to-scope-\$1-r;
#X text 119 463 Reg1 to Reg2;
#X text 272 462 delread to Reg1;
#X text 441 424 delread to next unit;
#X text 466 455 Reg2 to next unit;
#X text 566 480 bitwiser to next unit;
#X obj 426 301 unpack f f f f f f f f;
#X obj 426 198 sel 0 1 2 3 4 5;
#X msg 426 273 0 1 0 0 0 1;
#X msg 443 251 1 1 0 0 0 1;
#X msg 460 227 0 0 0 0 1 0;
#X connect 1 0 5 0;
#X connect 2 0 17 0;
#X connect 5 0 4 0;
#X connect 7 0 0 0;
#X connect 7 0 12 0;
#X connect 8 0 7 0;
#X connect 8 0 16 0;
#X connect 8 0 24 0;
#X connect 10 0 11 0;
#X connect 10 0 13 0;
#X connect 11 0 3 0;
#X connect 11 0 4 0;
#X connect 13 0 6 0;
#X connect 16 0 6 0;
#X connect 17 0 6 0;
#X connect 18 0 31 0;
#X connect 20 0 18 0;
#X connect 21 0 3 0;
#X connect 21 0 4 0;
#X connect 30 0 5 1;
#X connect 30 1 11 1;
#X connect 30 2 13 1;
#X connect 30 3 17 1;
#X connect 30 4 16 1;
#X connect 30 5 7 1;
#X connect 31 0 32 0;
#X connect 31 1 33 0;
#X connect 31 2 34 0;
#X connect 32 0 30 0;
#X connect 33 0 30 0;
#X connect 34 0 30 0;
#X coords 0 -1 1 1 95 72 2 500 100;
