#N canvas 93 148 1131 586 10;
#X obj 778 512 s~ delwrite\$1-r;
#X obj 123 367 r~ reg\$1-s-1;
#X obj 599 394 r~ reg\$1-s-2;
#X obj 344 506 s~ reg\$1-r-1;
#X obj 125 455 s~ reg\$1-r-2;
#X obj 124 414 *~;
#X obj 451 525 s~ reg\$2-r-1;
#X obj 779 453 *~;
#X obj 779 396 r~ bitwiser\$1-3;
#X text 466 508 Next Unit;
#X obj 344 378 r~ delread\$1-s;
#X obj 345 466 *~;
#X obj 901 512 s~ dac\$1-s;
#X obj 595 459 *~;
#X obj 997 401 *~;
#X obj 451 469 *~;
#X text 37 20 1 Normal mode \; - Bitwiser3 to delwrite and dac \; -
Delread to Reg1 & Reg2 \; 2 Double length mode \; - Reg1 to Reg2 \;
- Bitwiser3 to delwrite and dac \; - delread to Reg1 \; 3 Single length
Feed-forward \; - Bitwiser3 to Next Unit \; 4 Double length Feed-forward
\; - Reg1 to Reg2 \; - Reg2 to Next Unit \;;
#X text 36 178 5 Calculator \; - Reg2 to calculator \; - Calculator
to delwrite and dac \; - delread to next unit \;;
#X obj 935 461 *~;
#X obj 759 247 unpack f f f f f f f f;
#X obj 531 459 *~;
#X msg 777 191 1 1 0 0 1 0 0 0;
#X msg 796 163 0 0 0 0 0 0 1 0;
#X msg 833 107 0 0 1 1 0 1 0 1;
#X msg 814 135 1 0 0 0 0 0 0 1;
#X obj 759 79 sel 0 1 2 3 4;
#X obj 503 103 vradio 13 1 0 5 empty empty empty 0 -8 0 10 -262144
-1 -1 0;
#X text 519 102 Single \; Double \; Single FF \; Double FF \; Calc
\;;
#X obj 503 41 inlet;
#X text 617 538 calc;
#X text 1012 380 Calc;
#X obj 325 187 r~ osc-\$1-s;
#X obj 427 187 r~ noise-\$1-s;
#X obj 543 187 r~ soundfile-\$1-s;
#X obj 682 550 s~ to-scope-\$1-r;
#X msg 759 219 0 1 0 0 1 0 0 0;
#X connect 1 0 5 0;
#X connect 2 0 13 0;
#X connect 2 0 20 0;
#X connect 5 0 4 0;
#X connect 7 0 0 0;
#X connect 7 0 12 0;
#X connect 8 0 7 0;
#X connect 8 0 18 0;
#X connect 8 0 34 0;
#X connect 10 0 11 0;
#X connect 10 0 15 0;
#X connect 11 0 3 0;
#X connect 11 0 4 0;
#X connect 14 0 0 0;
#X connect 14 0 12 0;
#X connect 15 0 6 0;
#X connect 18 0 6 0;
#X connect 19 0 5 1;
#X connect 19 1 11 1;
#X connect 19 2 15 1;
#X connect 19 3 13 1;
#X connect 19 4 7 1;
#X connect 19 5 14 1;
#X connect 19 6 18 1;
#X connect 19 7 20 1;
#X connect 20 0 6 0;
#X connect 21 0 19 0;
#X connect 25 0 35 0;
#X connect 25 1 21 0;
#X connect 25 2 22 0;
#X connect 25 3 24 0;
#X connect 25 4 23 0;
#X connect 26 0 25 0;
#X connect 28 0 26 0;
#X connect 31 0 7 0;
#X connect 32 0 7 0;
#X connect 35 0 19 0;
#X coords 0 -1 1 1 95 72 2 500 100;
