#N canvas 106 115 1113 526 10;
#X obj 67 57 golomber 0 1;
#X msg 148 447 \; pd dsp \$1;
#X obj 148 423 tgl 15 0 empty empty empty 17 7 0 10 -262144 -1 -1 1
1;
#X obj 83 370 dac~;
#X obj 237 463 s unimetro;
#X obj 237 409 tgl 15 0 empty empty empty 17 7 0 10 -262144 -1 -1 1
1;
#X obj 237 435 metro 30;
#X obj 408 57 golomber 1 2;
#X obj 749 57 golomber 2 0;
#X text 473 355 Delay = 100 \; Osc 198 ms at 607 freq \; 0 \, 5 NOR
reg1 \; 0 \, 4 XOR \, reg2 \; XOR.... leads to long cresendo with "ripping"
sound transition \; Delay = 110 111 ms at 459 freq \; 0 \, 2 reg1 XOR
\; 0 \, 5 reg2 XOR \; XOR \;;
#X connect 0 0 3 0;
#X connect 2 0 1 0;
#X connect 5 0 6 0;
#X connect 6 0 4 0;
#X connect 7 0 3 1;
