#N canvas 108 140 1249 592 10;
#X floatatom 265 38 5 0 0 0 - - -, f 5;
#X obj 293 74 tgl 15 0 empty empty empty 17 7 0 10 -262144 -1 -1 0
1;
#X obj 293 121 metro 50;
#X obj 79 127 shift_register_sixteen_bit~;
#X obj 92 483 snapshot~;
#X obj 104 462 snapshot~;
#X obj 117 441 snapshot~;
#X obj 78 504 snapshot~;
#X floatatom 148 521 5 0 0 0 - - -, f 5;
#X floatatom 166 500 5 0 0 0 - - -, f 5;
#X floatatom 174 479 5 0 0 0 - - -, f 5;
#X floatatom 192 458 5 0 0 0 - - -, f 5;
#X obj 141 399 snapshot~;
#X obj 153 378 snapshot~;
#X obj 166 357 snapshot~;
#X obj 127 420 snapshot~;
#X obj 191 313 snapshot~;
#X obj 203 292 snapshot~;
#X obj 216 271 snapshot~;
#X obj 177 334 snapshot~;
#X obj 240 229 snapshot~;
#X obj 252 208 snapshot~;
#X obj 265 187 snapshot~;
#X obj 226 250 snapshot~;
#X floatatom 200 437 5 0 0 0 - - -, f 5;
#X floatatom 218 416 5 0 0 0 - - -, f 5;
#X floatatom 226 395 5 0 0 0 - - -, f 5;
#X floatatom 234 374 5 0 0 0 - - -, f 5;
#X floatatom 252 351 5 0 0 0 - - -, f 5;
#X floatatom 260 330 5 0 0 0 - - -, f 5;
#X floatatom 278 309 5 0 0 0 - - -, f 5;
#X floatatom 286 288 5 0 0 0 - - -, f 5;
#X floatatom 304 267 5 0 0 0 - - -, f 5;
#X floatatom 312 246 5 0 0 0 - - -, f 5;
#X floatatom 320 225 5 0 0 0 - - -, f 5;
#X floatatom 338 204 5 0 0 0 - - -, f 5;
#X obj 79 38 noise~;
#X obj 759 356 shift_register_sixteen_bit~;
#X obj 821 511 dac~;
#X floatatom 883 308 5 0 0 0 - - -, f 5;
#X obj 883 277 bng 15 250 50 0 empty empty empty 17 7 0 10 -262144
-1 -1;
#X obj 873 447 expr~ ($v1 ^ $v2);
#X obj 760 328 delread~ thisone 0;
#X msg 852 276 1;
#X obj 962 247 writesf~;
#X msg 978 219 open /tmp/lfsrtest.wav;
#X msg 968 192 start;
#X msg 962 169 stop;
#X obj 872 507 delwrite~ thisone 1600;
#X floatatom 431 566 5 0 0 0 - - -, f 5;
#X floatatom 442 550 5 0 0 0 - - -, f 5;
#X floatatom 453 534 5 0 0 0 - - -, f 5;
#X floatatom 464 518 5 0 0 0 - - -, f 5;
#X floatatom 475 502 5 0 0 0 - - -, f 5;
#X floatatom 486 486 5 0 0 0 - - -, f 5;
#X floatatom 498 470 5 0 0 0 - - -, f 5;
#X floatatom 509 454 5 0 0 0 - - -, f 5;
#X floatatom 520 436 5 0 0 0 - - -, f 5;
#X floatatom 531 420 5 0 0 0 - - -, f 5;
#X floatatom 542 404 5 0 0 0 - - -, f 5;
#X floatatom 554 388 5 0 0 0 - - -, f 5;
#X floatatom 565 372 5 0 0 0 - - -, f 5;
#X floatatom 576 356 5 0 0 0 - - -, f 5;
#X floatatom 587 340 5 0 0 0 - - -, f 5;
#X floatatom 598 324 5 0 0 0 - - -, f 5;
#X floatatom 610 300 5 0 0 0 - - -, f 5;
#X msg 521 206 0;
#X msg 490 206 1;
#X floatatom 575 235 5 0 0 0 - - -, f 5;
#X msg 431 170 output;
#X obj 447 198 bng 15 250 50 0 empty empty empty 17 7 0 10 -262144
-1 -1;
#X obj 431 273 shift_register_sixteen_bit;
#X obj 559 179 pow;
#X msg 549 145 2;
#X msg 591 145 17;
#X obj 603 210 -1;
#X floatatom 630 242 5 0 0 0 - - -, f 5;
#X obj 654 271 print;
#X obj 472 140 bng 15 250 50 0 empty empty empty 17 7 0 10 -262144
-1 -1;
#X msg 760 59 1000;
#X msg 760 86 900;
#X msg 760 113 750;
#X msg 760 140 500;
#X msg 760 194 250;
#X msg 760 167 300;
#X msg 760 221 100;
#X msg 760 248 60;
#X msg 760 275 5;
#X msg 760 302 0;
#X floatatom 970 300 5 0 0 0 - - -, f 5;
#X connect 0 0 3 1;
#X connect 1 0 2 0;
#X connect 2 0 4 0;
#X connect 2 0 5 0;
#X connect 2 0 6 0;
#X connect 2 0 7 0;
#X connect 2 0 15 0;
#X connect 2 0 12 0;
#X connect 2 0 13 0;
#X connect 2 0 14 0;
#X connect 2 0 19 0;
#X connect 2 0 16 0;
#X connect 2 0 17 0;
#X connect 2 0 18 0;
#X connect 2 0 23 0;
#X connect 2 0 20 0;
#X connect 2 0 21 0;
#X connect 2 0 22 0;
#X connect 3 0 7 0;
#X connect 3 1 4 0;
#X connect 3 2 5 0;
#X connect 3 3 6 0;
#X connect 3 4 15 0;
#X connect 3 5 12 0;
#X connect 3 6 13 0;
#X connect 3 7 14 0;
#X connect 3 8 19 0;
#X connect 3 9 16 0;
#X connect 3 10 17 0;
#X connect 3 11 18 0;
#X connect 3 12 23 0;
#X connect 3 13 20 0;
#X connect 3 14 21 0;
#X connect 3 15 22 0;
#X connect 4 0 9 0;
#X connect 5 0 10 0;
#X connect 6 0 11 0;
#X connect 7 0 8 0;
#X connect 12 0 25 0;
#X connect 13 0 26 0;
#X connect 14 0 27 0;
#X connect 15 0 24 0;
#X connect 16 0 29 0;
#X connect 17 0 30 0;
#X connect 18 0 31 0;
#X connect 19 0 28 0;
#X connect 20 0 33 0;
#X connect 21 0 34 0;
#X connect 22 0 35 0;
#X connect 23 0 32 0;
#X connect 36 0 3 0;
#X connect 37 13 41 0;
#X connect 37 15 41 1;
#X connect 39 0 37 1;
#X connect 40 0 39 0;
#X connect 41 0 38 0;
#X connect 41 0 38 1;
#X connect 41 0 44 0;
#X connect 41 0 48 0;
#X connect 42 0 37 0;
#X connect 43 0 37 1;
#X connect 45 0 44 0;
#X connect 46 0 44 0;
#X connect 47 0 44 0;
#X connect 66 0 71 1;
#X connect 67 0 71 1;
#X connect 68 0 71 2;
#X connect 68 0 78 0;
#X connect 69 0 71 0;
#X connect 70 0 71 0;
#X connect 71 0 49 0;
#X connect 71 1 50 0;
#X connect 71 2 51 0;
#X connect 71 3 52 0;
#X connect 71 4 53 0;
#X connect 71 5 54 0;
#X connect 71 6 55 0;
#X connect 71 7 56 0;
#X connect 71 8 57 0;
#X connect 71 9 58 0;
#X connect 71 10 59 0;
#X connect 71 11 60 0;
#X connect 71 12 61 0;
#X connect 71 13 62 0;
#X connect 71 14 63 0;
#X connect 71 15 64 0;
#X connect 71 16 65 0;
#X connect 72 0 75 0;
#X connect 73 0 72 0;
#X connect 74 0 72 1;
#X connect 75 0 76 0;
#X connect 76 0 77 0;
#X connect 78 0 69 0;
#X connect 79 0 42 0;
#X connect 80 0 42 0;
#X connect 81 0 42 0;
#X connect 82 0 42 0;
#X connect 83 0 42 0;
#X connect 84 0 42 0;
#X connect 85 0 42 0;
#X connect 86 0 42 0;
#X connect 87 0 42 0;
#X connect 88 0 42 0;
