#N canvas 80 118 1024 592 10;
#X floatatom 265 38 5 0 0 0 - - -, f 5;
#X obj 293 74 tgl 15 0 empty empty empty 17 7 0 10 -262144 -1 -1 1
1;
#X obj 79 127 shift_register_sixteen_bit~;
#X obj 92 483 snapshot~;
#X obj 104 462 snapshot~;
#X obj 117 441 snapshot~;
#X obj 78 504 snapshot~;
#X floatatom 148 521 5 0 0 0 - - -, f 5;
#X floatatom 166 500 5 0 0 0 - - -, f 5;
#X floatatom 174 479 5 0 0 0 - - -, f 5;
#X floatatom 192 458 5 0 0 0 - - -, f 5;
#X obj 141 399 snapshot~;
#X obj 153 378 snapshot~;
#X obj 166 357 snapshot~;
#X obj 127 420 snapshot~;
#X obj 191 313 snapshot~;
#X obj 203 292 snapshot~;
#X obj 216 271 snapshot~;
#X obj 177 334 snapshot~;
#X obj 240 229 snapshot~;
#X obj 252 208 snapshot~;
#X obj 265 187 snapshot~;
#X obj 226 250 snapshot~;
#X floatatom 200 437 5 0 0 0 - - -, f 5;
#X floatatom 218 416 5 0 0 0 - - -, f 5;
#X floatatom 226 395 5 0 0 0 - - -, f 5;
#X floatatom 234 374 5 0 0 0 - - -, f 5;
#X floatatom 252 351 5 0 0 0 - - -, f 5;
#X floatatom 260 330 5 0 0 0 - - -, f 5;
#X floatatom 278 309 5 0 0 0 - - -, f 5;
#X floatatom 286 288 5 0 0 0 - - -, f 5;
#X floatatom 304 267 5 0 0 0 - - -, f 5;
#X floatatom 312 246 5 0 0 0 - - -, f 5;
#X floatatom 320 225 5 0 0 0 - - -, f 5;
#X floatatom 338 204 5 0 0 0 - - -, f 5;
#X floatatom 381 436 5 0 0 0 - - -, f 5;
#X floatatom 392 420 5 0 0 0 - - -, f 5;
#X floatatom 403 404 5 0 0 0 - - -, f 5;
#X floatatom 414 388 5 0 0 0 - - -, f 5;
#X floatatom 425 372 5 0 0 0 - - -, f 5;
#X floatatom 436 356 5 0 0 0 - - -, f 5;
#X floatatom 448 340 5 0 0 0 - - -, f 5;
#X floatatom 459 324 5 0 0 0 - - -, f 5;
#X floatatom 470 306 5 0 0 0 - - -, f 5;
#X floatatom 481 290 5 0 0 0 - - -, f 5;
#X floatatom 492 274 5 0 0 0 - - -, f 5;
#X floatatom 504 258 5 0 0 0 - - -, f 5;
#X floatatom 515 242 5 0 0 0 - - -, f 5;
#X floatatom 526 226 5 0 0 0 - - -, f 5;
#X floatatom 537 210 5 0 0 0 - - -, f 5;
#X floatatom 548 194 5 0 0 0 - - -, f 5;
#X floatatom 560 170 5 0 0 0 - - -, f 5;
#X msg 471 76 0;
#X msg 440 76 1;
#X floatatom 525 105 5 0 0 0 - - -, f 5;
#X msg 381 40 output;
#X obj 397 68 bng 15 250 50 0 empty empty empty 17 7 0 10 -262144 -1
-1;
#X obj 381 143 shift_register_sixteen_bit;
#X obj 509 49 pow;
#X msg 499 15 2;
#X msg 541 15 17;
#X obj 553 80 -1;
#X floatatom 580 112 5 0 0 0 - - -, f 5;
#X obj 604 141 print;
#X obj 422 10 bng 15 250 50 0 empty empty empty 17 7 0 10 -262144 -1
-1;
#X msg 187 53 \; pd dsp \$1;
#X obj 187 33 tgl 15 0 empty empty empty 17 7 0 10 -262144 -1 -1 1
1;
#X text 728 24 300 ms delay \; 0 \, 2 reg 1 XOR \; 0 \, 8 reg 2 XOR
\; NOR \; Wheel + 37 ms osc @ 2000hz \; + 18 ms Noise @ 5000 lowp.
;
#X obj 861 470 tgl 15 0 empty empty empty 17 7 0 10 -262144 -1 -1 0
1;
#X obj 720 541 s unimetro;
#X obj 734 498 metro 30;
#X text 721 132 689 Delay \; Noise 217 ms 2224 lop \; Osc 205 ms 511
freq \; 0 \, 3 reg 1 XOR \; 0 \, 4 reg 2 XOR \; XOR \; osc at three
freqs to make melody;
#X obj 124 76 bng 15 250 50 0 empty empty empty 17 7 0 10 -262144 -1
-1;
#X obj 293 121 metro 100;
#X obj 79 37 phasor~ 15;
#X connect 0 0 2 1;
#X connect 1 0 73 0;
#X connect 2 0 6 0;
#X connect 2 1 3 0;
#X connect 2 2 4 0;
#X connect 2 3 5 0;
#X connect 2 4 14 0;
#X connect 2 5 11 0;
#X connect 2 6 12 0;
#X connect 2 7 13 0;
#X connect 2 8 18 0;
#X connect 2 9 15 0;
#X connect 2 10 16 0;
#X connect 2 11 17 0;
#X connect 2 12 22 0;
#X connect 2 13 19 0;
#X connect 2 14 20 0;
#X connect 2 15 21 0;
#X connect 3 0 8 0;
#X connect 4 0 9 0;
#X connect 5 0 10 0;
#X connect 6 0 7 0;
#X connect 11 0 24 0;
#X connect 12 0 25 0;
#X connect 13 0 26 0;
#X connect 14 0 23 0;
#X connect 15 0 28 0;
#X connect 16 0 29 0;
#X connect 17 0 30 0;
#X connect 18 0 27 0;
#X connect 19 0 32 0;
#X connect 20 0 33 0;
#X connect 21 0 34 0;
#X connect 22 0 31 0;
#X connect 52 0 57 1;
#X connect 53 0 57 1;
#X connect 54 0 57 2;
#X connect 54 0 64 0;
#X connect 55 0 57 0;
#X connect 56 0 57 0;
#X connect 57 0 35 0;
#X connect 57 1 36 0;
#X connect 57 2 37 0;
#X connect 57 3 38 0;
#X connect 57 4 39 0;
#X connect 57 5 40 0;
#X connect 57 6 41 0;
#X connect 57 7 42 0;
#X connect 57 8 43 0;
#X connect 57 9 44 0;
#X connect 57 10 45 0;
#X connect 57 11 46 0;
#X connect 57 12 47 0;
#X connect 57 13 48 0;
#X connect 57 14 49 0;
#X connect 57 15 50 0;
#X connect 57 16 51 0;
#X connect 58 0 61 0;
#X connect 59 0 58 0;
#X connect 60 0 58 1;
#X connect 61 0 62 0;
#X connect 62 0 63 0;
#X connect 64 0 55 0;
#X connect 66 0 65 0;
#X connect 68 0 70 0;
#X connect 70 0 69 0;
#X connect 72 0 2 0;
#X connect 73 0 3 0;
#X connect 73 0 4 0;
#X connect 73 0 5 0;
#X connect 73 0 6 0;
#X connect 73 0 14 0;
#X connect 73 0 11 0;
#X connect 73 0 12 0;
#X connect 73 0 13 0;
#X connect 73 0 18 0;
#X connect 73 0 15 0;
#X connect 73 0 16 0;
#X connect 73 0 17 0;
#X connect 73 0 22 0;
#X connect 73 0 19 0;
#X connect 73 0 20 0;
#X connect 73 0 21 0;
#X connect 74 0 2 0;
