#N canvas 630 253 450 300 10;
#X obj 185 93 polybang;
#X obj 183 34 bng 15 250 50 0 empty empty empty 17 7 0 10 -262144 -1
-1;
#X obj 165 135 bng 15 250 50 0 empty empty empty 17 7 0 10 -262144
-1 -1;
#X obj 194 137 bng 15 250 50 0 empty empty empty 17 7 0 10 -262144
-1 -1;
#X obj 224 134 bng 15 250 50 0 empty empty empty 17 7 0 10 -262144
-1 -1;
#X floatatom 255 134 5 0 0 0 - - -, f 5;
#X floatatom 220 33 5 0 0 0 - - -, f 5;
#X floatatom 261 55 5 0 0 0 - - -, f 5;
#X connect 0 0 2 0;
#X connect 0 1 3 0;
#X connect 0 2 4 0;
#X connect 0 3 5 0;
#X connect 1 0 0 0;
#X connect 6 0 0 1;
#X connect 7 0 0 2;
