#N canvas 151 263 1060 504 10;
#X obj 773 86 Processor;
#X obj 211 99 golomber2 0 1;
#X obj 334 390 s topology0;
#X obj 374 370 s topology1;
#X obj 415 350 s topology2;
#X obj 36 309 s reg0-wheel;
#X floatatom 36 284 5 0 0 0 - - -, f 5;
#X msg 289 38 \; pd dsp \$1;
#X obj 289 12 tgl 15 0 empty empty empty 17 7 0 10 -262144 -1 -1 1
1;
#X obj 76 62 osc~ 440;
#X obj 77 189 *~;
#X text 220 298 OFF;
#X text 219 338 SINGLE;
#X text 220 319 BYPASS;
#X text 221 358 BYPASS DELAY;
#X obj 334 327 unpack f f f;
#X msg 334 284 0 0 0;
#X msg 339 303 2 2 2;
#X msg 388 283 1 1 0;
#X msg 388 303 3 3 0;
#X obj 115 128 del 10;
#X obj 115 89 bng 15 250 50 0 empty empty empty 17 7 0 10 -262144 -1
-1;
#X obj 115 107 t b b;
#X msg 95 156 0;
#X msg 127 156 1;
#X obj 28 230 throw~ reg0-inlet;
#X obj 778 404 throw~ reg0-inlet;
#X obj 638 364 dac~;
#X text 528 79 |;
#X text 417 79 |;
#X text 640 79 |;
#X obj 211 156 golomber2 1 2;
#X obj 211 213 golomber2 2 0;
#X text 503 404 2: 12 or 13 \, 14!!! \; 3: 21 \; wheel: 2 \; delay1:300
\; delay2: 107 \; delay3: 212 \; Oh \, delays don't matter... it's
1-1-0;
#X connect 0 0 26 0;
#X connect 0 0 27 0;
#X connect 0 0 27 1;
#X connect 6 0 5 0;
#X connect 8 0 7 0;
#X connect 9 0 10 0;
#X connect 10 0 25 0;
#X connect 15 0 2 0;
#X connect 15 1 3 0;
#X connect 15 2 4 0;
#X connect 16 0 15 0;
#X connect 17 0 15 0;
#X connect 18 0 15 0;
#X connect 19 0 15 0;
#X connect 20 0 23 0;
#X connect 21 0 22 0;
#X connect 22 0 20 0;
#X connect 22 1 24 0;
#X connect 23 0 10 1;
#X connect 24 0 10 1;
