#N canvas 105 145 1249 592 10;
#X floatatom 265 38 5 0 0 0 - - -, f 5;
#X obj 293 74 tgl 15 0 empty empty empty 17 7 0 10 -262144 -1 -1 0
1;
#X obj 293 121 metro 50;
#X obj 79 127 shift_register_sixteen_bit~;
#X obj 92 483 snapshot~;
#X obj 104 462 snapshot~;
#X obj 117 441 snapshot~;
#X obj 78 504 snapshot~;
#X floatatom 148 521 5 0 0 0 - - -, f 5;
#X floatatom 166 500 5 0 0 0 - - -, f 5;
#X floatatom 174 479 5 0 0 0 - - -, f 5;
#X floatatom 192 458 5 0 0 0 - - -, f 5;
#X obj 141 399 snapshot~;
#X obj 153 378 snapshot~;
#X obj 166 357 snapshot~;
#X obj 127 420 snapshot~;
#X obj 191 313 snapshot~;
#X obj 203 292 snapshot~;
#X obj 216 271 snapshot~;
#X obj 177 334 snapshot~;
#X obj 240 229 snapshot~;
#X obj 252 208 snapshot~;
#X obj 265 187 snapshot~;
#X obj 226 250 snapshot~;
#X floatatom 200 437 5 0 0 0 - - -, f 5;
#X floatatom 218 416 5 0 0 0 - - -, f 5;
#X floatatom 226 395 5 0 0 0 - - -, f 5;
#X floatatom 234 374 5 0 0 0 - - -, f 5;
#X floatatom 252 351 5 0 0 0 - - -, f 5;
#X floatatom 260 330 5 0 0 0 - - -, f 5;
#X floatatom 278 309 5 0 0 0 - - -, f 5;
#X floatatom 286 288 5 0 0 0 - - -, f 5;
#X floatatom 304 267 5 0 0 0 - - -, f 5;
#X floatatom 312 246 5 0 0 0 - - -, f 5;
#X floatatom 320 225 5 0 0 0 - - -, f 5;
#X floatatom 338 204 5 0 0 0 - - -, f 5;
#X obj 79 38 noise~;
#X obj 753 361 shift_register_sixteen_bit~;
#X obj 805 483 dac~;
#X floatatom 920 121 5 0 0 0 - - -, f 5;
#X obj 920 90 bng 15 250 50 0 empty empty empty 17 7 0 10 -262144 -1
-1;
#X obj 773 447 expr~ ($v1 ^ $v2);
#X obj 754 298 delread~ thisone 0;
#X obj 1019 465 writesf~;
#X msg 1035 437 open /tmp/lfsrtest.wav;
#X msg 1025 410 start;
#X msg 1019 387 stop;
#X floatatom 381 436 5 0 0 0 - - -, f 5;
#X floatatom 392 420 5 0 0 0 - - -, f 5;
#X floatatom 403 404 5 0 0 0 - - -, f 5;
#X floatatom 414 388 5 0 0 0 - - -, f 5;
#X floatatom 425 372 5 0 0 0 - - -, f 5;
#X floatatom 436 356 5 0 0 0 - - -, f 5;
#X floatatom 448 340 5 0 0 0 - - -, f 5;
#X floatatom 459 324 5 0 0 0 - - -, f 5;
#X floatatom 470 306 5 0 0 0 - - -, f 5;
#X floatatom 481 290 5 0 0 0 - - -, f 5;
#X floatatom 492 274 5 0 0 0 - - -, f 5;
#X floatatom 504 258 5 0 0 0 - - -, f 5;
#X floatatom 515 242 5 0 0 0 - - -, f 5;
#X floatatom 526 226 5 0 0 0 - - -, f 5;
#X floatatom 537 210 5 0 0 0 - - -, f 5;
#X floatatom 548 194 5 0 0 0 - - -, f 5;
#X floatatom 560 170 5 0 0 0 - - -, f 5;
#X msg 471 76 0;
#X msg 440 76 1;
#X floatatom 525 105 5 0 0 0 - - -, f 5;
#X msg 381 40 output;
#X obj 397 68 bng 15 250 50 0 empty empty empty 17 7 0 10 -262144 -1
-1;
#X obj 381 143 shift_register_sixteen_bit;
#X obj 509 49 pow;
#X msg 499 15 2;
#X msg 541 15 17;
#X obj 553 80 -1;
#X floatatom 580 112 5 0 0 0 - - -, f 5;
#X obj 604 141 print;
#X obj 422 10 bng 15 250 50 0 empty empty empty 17 7 0 10 -262144 -1
-1;
#X msg 754 29 1000;
#X msg 754 56 900;
#X msg 754 83 750;
#X msg 754 110 500;
#X msg 754 164 250;
#X msg 754 137 300;
#X msg 754 191 100;
#X msg 754 218 60;
#X msg 754 272 0;
#X msg 157 26 \; pd dsp \$1;
#X obj 157 6 tgl 15 0 empty empty empty 17 7 0 10 -262144 -1 -1 0 1
;
#X msg 889 89 2;
#X obj 746 412 signal_router_sixteen_bit;
#X obj 530 313 hradio 13 1 0 16 empty empty empty 0 -8 0 10 -262144
-1 -1 15;
#X obj 530 366 t b f;
#X obj 544 415 -;
#X msg 530 388 16;
#X floatatom 544 438 5 0 0 0 - - -, f 5;
#X obj 530 337 hradio 13 1 0 16 empty empty empty 0 -8 0 10 -262144
-1 -1 13;
#X obj 580 366 t b f;
#X obj 594 415 -;
#X msg 580 388 16;
#X floatatom 594 438 5 0 0 0 - - -, f 5;
#X msg 754 245 15;
#X obj 773 507 delwrite~ thisone 1000;
#X connect 0 0 3 1;
#X connect 1 0 2 0;
#X connect 2 0 4 0;
#X connect 2 0 5 0;
#X connect 2 0 6 0;
#X connect 2 0 7 0;
#X connect 2 0 15 0;
#X connect 2 0 12 0;
#X connect 2 0 13 0;
#X connect 2 0 14 0;
#X connect 2 0 19 0;
#X connect 2 0 16 0;
#X connect 2 0 17 0;
#X connect 2 0 18 0;
#X connect 2 0 23 0;
#X connect 2 0 20 0;
#X connect 2 0 21 0;
#X connect 2 0 22 0;
#X connect 3 0 7 0;
#X connect 3 1 4 0;
#X connect 3 2 5 0;
#X connect 3 3 6 0;
#X connect 3 4 15 0;
#X connect 3 5 12 0;
#X connect 3 6 13 0;
#X connect 3 7 14 0;
#X connect 3 8 19 0;
#X connect 3 9 16 0;
#X connect 3 10 17 0;
#X connect 3 11 18 0;
#X connect 3 12 23 0;
#X connect 3 13 20 0;
#X connect 3 14 21 0;
#X connect 3 15 22 0;
#X connect 4 0 9 0;
#X connect 5 0 10 0;
#X connect 6 0 11 0;
#X connect 7 0 8 0;
#X connect 12 0 25 0;
#X connect 13 0 26 0;
#X connect 14 0 27 0;
#X connect 15 0 24 0;
#X connect 16 0 29 0;
#X connect 17 0 30 0;
#X connect 18 0 31 0;
#X connect 19 0 28 0;
#X connect 20 0 33 0;
#X connect 21 0 34 0;
#X connect 22 0 35 0;
#X connect 23 0 32 0;
#X connect 36 0 3 0;
#X connect 37 0 89 2;
#X connect 37 1 89 3;
#X connect 37 2 89 4;
#X connect 37 3 89 5;
#X connect 37 4 89 6;
#X connect 37 5 89 7;
#X connect 37 6 89 8;
#X connect 37 7 89 9;
#X connect 37 8 89 10;
#X connect 37 9 89 11;
#X connect 37 10 89 12;
#X connect 37 11 89 13;
#X connect 37 12 89 14;
#X connect 37 13 89 15;
#X connect 37 14 89 16;
#X connect 37 15 89 17;
#X connect 39 0 37 1;
#X connect 40 0 39 0;
#X connect 41 0 38 0;
#X connect 41 0 38 1;
#X connect 41 0 43 0;
#X connect 41 0 101 0;
#X connect 42 0 37 0;
#X connect 44 0 43 0;
#X connect 45 0 43 0;
#X connect 46 0 43 0;
#X connect 64 0 69 1;
#X connect 65 0 69 1;
#X connect 66 0 69 2;
#X connect 66 0 76 0;
#X connect 67 0 69 0;
#X connect 68 0 69 0;
#X connect 69 0 47 0;
#X connect 69 1 48 0;
#X connect 69 2 49 0;
#X connect 69 3 50 0;
#X connect 69 4 51 0;
#X connect 69 5 52 0;
#X connect 69 6 53 0;
#X connect 69 7 54 0;
#X connect 69 8 55 0;
#X connect 69 9 56 0;
#X connect 69 10 57 0;
#X connect 69 11 58 0;
#X connect 69 12 59 0;
#X connect 69 13 60 0;
#X connect 69 14 61 0;
#X connect 69 15 62 0;
#X connect 69 16 63 0;
#X connect 70 0 73 0;
#X connect 71 0 70 0;
#X connect 72 0 70 1;
#X connect 73 0 74 0;
#X connect 74 0 75 0;
#X connect 76 0 67 0;
#X connect 77 0 42 0;
#X connect 78 0 42 0;
#X connect 79 0 42 0;
#X connect 80 0 42 0;
#X connect 81 0 42 0;
#X connect 82 0 42 0;
#X connect 83 0 42 0;
#X connect 84 0 42 0;
#X connect 85 0 42 0;
#X connect 87 0 86 0;
#X connect 88 0 37 1;
#X connect 89 0 41 0;
#X connect 89 1 41 1;
#X connect 90 0 91 0;
#X connect 91 0 93 0;
#X connect 91 1 92 1;
#X connect 92 0 94 0;
#X connect 93 0 92 0;
#X connect 94 0 89 0;
#X connect 95 0 96 0;
#X connect 96 0 98 0;
#X connect 96 1 97 1;
#X connect 97 0 99 0;
#X connect 98 0 97 0;
#X connect 99 0 89 1;
#X connect 100 0 42 0;
