#N canvas 239 204 1060 504 10;
#X obj 773 86 Processor;
#X obj 211 99 golomber2 0 1;
#X obj 334 440 s topology0;
#X obj 365 420 s topology1;
#X obj 397 400 s topology2;
#X obj 36 309 s reg0-wheel;
#X floatatom 36 284 5 0 0 0 - - -, f 5;
#X msg 289 38 \; pd dsp \$1;
#X obj 289 12 tgl 15 0 empty empty empty 17 7 0 10 -262144 -1 -1 1
1;
#X obj 76 62 osc~ 440;
#X obj 77 189 *~;
#X text 220 298 OFF;
#X text 219 338 SINGLE;
#X text 220 319 BYPASS;
#X text 221 358 BYPASS DELAY;
#X obj 115 128 del 10;
#X obj 115 89 bng 15 250 50 0 empty empty empty 17 7 0 10 -262144 -1
-1;
#X obj 115 107 t b b;
#X msg 95 156 0;
#X msg 127 156 1;
#X obj 28 230 throw~ reg0-inlet;
#X obj 774 362 throw~ reg0-inlet;
#X obj 689 442 dac~;
#X text 528 79 |;
#X text 417 79 |;
#X text 640 79 |;
#X text 25 389 2: 12 or 13 \, 14!!! \; 3: 21 \; wheel: 2 \; delay1:300
\; delay2: 107 \; delay3: 212 \; Oh \, delays don't matter... it's
1-1-0;
#X obj 211 156 golomber2 1 2;
#X obj 211 213 golomber2 2 0;
#X obj 33 263 bng 15 250 50 0 empty empty empty 17 7 0 10 -262144 -1
-1;
#X obj 334 327 unpack f f f f;
#X obj 524 322 r~ reg0-tap0;
#X obj 524 372 r~ reg1-tap0;
#X obj 524 422 r~ reg2-tap2;
#X obj 525 476 dac~;
#X obj 525 343 *~ 0.3;
#X obj 524 396 *~ 0.3;
#X obj 524 444 *~ 0.3;
#X obj 641 335 unpack f f;
#X msg 641 287 0 1;
#X msg 641 312 0.3 0;
#X obj 690 375 *~;
#X msg 334 284 0 0 0 0;
#X msg 339 303 2 2 2 0;
#X msg 408 283 1 1 0 1;
#X obj 528 280 sel 0 1;
#X msg 408 303 3 3 0 1;
#X connect 0 0 21 0;
#X connect 0 0 41 0;
#X connect 6 0 5 0;
#X connect 8 0 7 0;
#X connect 9 0 10 0;
#X connect 10 0 20 0;
#X connect 15 0 18 0;
#X connect 16 0 17 0;
#X connect 17 0 15 0;
#X connect 17 1 19 0;
#X connect 18 0 10 1;
#X connect 19 0 10 1;
#X connect 29 0 6 0;
#X connect 30 0 2 0;
#X connect 30 1 3 0;
#X connect 30 2 4 0;
#X connect 30 3 45 0;
#X connect 31 0 35 0;
#X connect 32 0 36 0;
#X connect 33 0 37 0;
#X connect 35 0 34 0;
#X connect 35 0 34 1;
#X connect 36 0 34 0;
#X connect 36 0 34 1;
#X connect 37 0 34 0;
#X connect 37 0 34 1;
#X connect 38 0 35 1;
#X connect 38 0 36 1;
#X connect 38 0 37 1;
#X connect 38 1 41 1;
#X connect 39 0 38 0;
#X connect 40 0 38 0;
#X connect 41 0 22 0;
#X connect 41 0 22 1;
#X connect 42 0 30 0;
#X connect 43 0 30 0;
#X connect 44 0 30 0;
#X connect 45 1 40 0;
#X connect 45 2 39 0;
#X connect 46 0 30 0;
