#N canvas 48 96 1296 652 10;
#X obj 297 258 inlet~;
#X obj 354 258 inlet~;
#X obj 411 258 inlet~;
#X obj 468 258 inlet~;
#X obj 525 258 inlet~;
#X obj 582 258 inlet~;
#X obj 639 258 inlet~;
#X obj 696 258 inlet~;
#X obj 753 258 inlet~;
#X obj 810 258 inlet~;
#X obj 867 258 inlet~;
#X obj 924 258 inlet~;
#X obj 296 358 *~;
#X obj 353 358 *~;
#X obj 412 358 *~;
#X obj 469 358 *~;
#X obj 526 358 *~;
#X obj 583 358 *~;
#X obj 638 358 *~;
#X obj 695 358 *~;
#X obj 753 358 *~;
#X obj 810 358 *~;
#X obj 866 358 *~;
#X obj 923 358 *~;
#X obj 36 16 inlet;
#X obj 96 16 inlet;
#X obj 36 341 unpack f f f f f f f f f f f f;
#X obj 296 468 *~;
#X obj 353 468 *~;
#X obj 412 468 *~;
#X obj 469 468 *~;
#X obj 526 468 *~;
#X obj 583 468 *~;
#X obj 638 468 *~;
#X obj 695 468 *~;
#X obj 753 468 *~;
#X obj 810 468 *~;
#X obj 866 468 *~;
#X obj 923 468 *~;
#X obj 993 451 unpack f f f f f f f f f f f f;
#X msg 36 313 0 0 0 0 0 0 0 0 0 0 0 1;
#X obj 36 37 sel 0 1 2 3 4 5 6 7 8 9 10 11;
#X msg 52 292 0 0 0 0 0 0 0 0 0 0 1 0;
#X msg 219 82 1 0 0 0 0 0 0 0 0 0 0 0;
#X msg 202 103 0 1 0 0 0 0 0 0 0 0 0 0;
#X msg 186 124 0 0 1 0 0 0 0 0 0 0 0 0;
#X msg 169 145 0 0 0 1 0 0 0 0 0 0 0 0;
#X msg 152 166 0 0 0 0 1 0 0 0 0 0 0 0;
#X msg 136 187 0 0 0 0 0 1 0 0 0 0 0 0;
#X msg 119 208 0 0 0 0 0 0 1 0 0 0 0 0;
#X msg 102 229 0 0 0 0 0 0 0 1 0 0 0 0;
#X msg 86 250 0 0 0 0 0 0 0 0 1 0 0 0;
#X msg 69 271 0 0 0 0 0 0 0 0 0 1 0 0;
#X msg 993 423 0 0 0 0 0 0 0 0 0 0 0 1;
#X msg 1009 402 0 0 0 0 0 0 0 0 0 0 1 0;
#X msg 1176 192 1 0 0 0 0 0 0 0 0 0 0 0;
#X msg 1159 213 0 1 0 0 0 0 0 0 0 0 0 0;
#X msg 1143 234 0 0 1 0 0 0 0 0 0 0 0 0;
#X msg 1126 255 0 0 0 1 0 0 0 0 0 0 0 0;
#X msg 1109 276 0 0 0 0 1 0 0 0 0 0 0 0;
#X msg 1093 297 0 0 0 0 0 1 0 0 0 0 0 0;
#X msg 1076 318 0 0 0 0 0 0 1 0 0 0 0 0;
#X msg 1059 339 0 0 0 0 0 0 0 1 0 0 0 0;
#X msg 1043 360 0 0 0 0 0 0 0 0 1 0 0 0;
#X msg 1026 381 0 0 0 0 0 0 0 0 0 1 0 0;
#X obj 993 33 sel 0 1 2 3 4 5 6 7 8 9 10 11;
#X obj 531 603 bitwiser;
#X obj 7 586 inlet;
#X connect 0 0 12 0;
#X connect 0 0 27 0;
#X connect 1 0 13 0;
#X connect 1 0 28 0;
#X connect 2 0 14 0;
#X connect 2 0 29 0;
#X connect 3 0 15 0;
#X connect 3 0 30 0;
#X connect 4 0 16 0;
#X connect 4 0 31 0;
#X connect 5 0 17 0;
#X connect 5 0 32 0;
#X connect 6 0 18 0;
#X connect 6 0 33 0;
#X connect 7 0 19 0;
#X connect 7 0 34 0;
#X connect 8 0 20 0;
#X connect 8 0 35 0;
#X connect 9 0 21 0;
#X connect 9 0 36 0;
#X connect 10 0 22 0;
#X connect 10 0 37 0;
#X connect 11 0 23 0;
#X connect 11 0 38 0;
#X connect 12 0 66 2;
#X connect 13 0 66 2;
#X connect 14 0 66 2;
#X connect 15 0 66 2;
#X connect 16 0 66 2;
#X connect 17 0 66 2;
#X connect 18 0 66 2;
#X connect 19 0 66 2;
#X connect 20 0 66 2;
#X connect 21 0 66 2;
#X connect 22 0 66 2;
#X connect 23 0 66 2;
#X connect 24 0 41 0;
#X connect 25 0 65 0;
#X connect 26 0 12 1;
#X connect 26 1 13 1;
#X connect 26 2 14 1;
#X connect 26 3 15 1;
#X connect 26 4 16 1;
#X connect 26 5 17 1;
#X connect 26 6 18 1;
#X connect 26 7 19 1;
#X connect 26 8 20 1;
#X connect 26 9 21 1;
#X connect 26 10 22 1;
#X connect 26 11 23 1;
#X connect 27 0 66 1;
#X connect 28 0 66 1;
#X connect 29 0 66 1;
#X connect 30 0 66 1;
#X connect 31 0 66 1;
#X connect 32 0 66 1;
#X connect 33 0 66 1;
#X connect 34 0 66 1;
#X connect 35 0 66 1;
#X connect 36 0 66 1;
#X connect 37 0 66 1;
#X connect 38 0 66 1;
#X connect 39 0 27 1;
#X connect 39 1 28 1;
#X connect 39 2 29 1;
#X connect 39 3 30 1;
#X connect 39 4 31 1;
#X connect 39 5 32 1;
#X connect 39 6 33 1;
#X connect 39 7 34 1;
#X connect 39 8 35 1;
#X connect 39 9 36 1;
#X connect 39 10 37 1;
#X connect 39 11 38 1;
#X connect 40 0 26 0;
#X connect 41 0 40 0;
#X connect 41 1 42 0;
#X connect 41 2 52 0;
#X connect 41 3 51 0;
#X connect 41 4 50 0;
#X connect 41 5 49 0;
#X connect 41 6 48 0;
#X connect 41 7 47 0;
#X connect 41 8 46 0;
#X connect 41 9 45 0;
#X connect 41 10 44 0;
#X connect 41 11 43 0;
#X connect 42 0 26 0;
#X connect 43 0 26 0;
#X connect 44 0 26 0;
#X connect 45 0 26 0;
#X connect 46 0 26 0;
#X connect 47 0 26 0;
#X connect 48 0 26 0;
#X connect 49 0 26 0;
#X connect 50 0 26 0;
#X connect 51 0 26 0;
#X connect 52 0 26 0;
#X connect 53 0 39 0;
#X connect 54 0 39 0;
#X connect 55 0 39 0;
#X connect 56 0 39 0;
#X connect 57 0 39 0;
#X connect 58 0 39 0;
#X connect 59 0 39 0;
#X connect 60 0 39 0;
#X connect 61 0 39 0;
#X connect 62 0 39 0;
#X connect 63 0 39 0;
#X connect 64 0 39 0;
#X connect 65 0 53 0;
#X connect 65 1 54 0;
#X connect 65 2 64 0;
#X connect 65 3 63 0;
#X connect 65 4 62 0;
#X connect 65 5 61 0;
#X connect 65 6 60 0;
#X connect 65 7 59 0;
#X connect 65 8 58 0;
#X connect 65 9 57 0;
#X connect 65 10 56 0;
#X connect 65 11 55 0;
#X connect 67 0 66 0;
