#N canvas 140 268 855 473 10;
#X obj 98 38 hradio 29 1 0 4 empty empty empty 0 -8 0 10 -204786 -1
-1 0;
#X obj 98 67 hradio 29 1 0 4 empty empty empty 0 -8 0 10 -262144 -1
-1 1;
#X obj 59 237 r~ signal_router0-outlet;
#X obj 252 237 r~ signal_router1-outlet;
#X obj 445 237 r~ signal_router2-outlet;
#X obj 638 237 r~ signal_router3-outlet;
#X obj 263 177 unpack f f f f;
#X obj 58 299 *~;
#X obj 94 299 *~;
#X obj 251 299 *~;
#X obj 287 299 *~;
#X obj 446 299 *~;
#X obj 482 299 *~;
#X obj 639 299 *~;
#X obj 675 299 *~;
#X obj 453 206 unpack f f f f;
#X obj 331 414 bitwiser;
#X msg 263 156 0 0 0 1;
#X obj 263 67 sel 0 1 2 3;
#X obj 453 96 sel 0 1 2 3;
#X msg 281 135 0 0 1 0;
#X msg 300 114 0 1 0 0;
#X msg 318 93 1 0 0 0;
#X msg 453 185 0 0 0 1;
#X msg 471 164 0 0 1 0;
#X msg 490 143 0 1 0 0;
#X msg 508 122 1 0 0 0;
#X obj 332 445 outlet~;
#X obj 45 45 vradio 22 1 0 2 empty empty empty 0 -8 0 10 -262144 -1
-1 1;
#X text 70 49 ->;
#X text 70 72 XOR;
#X connect 0 0 18 0;
#X connect 1 0 19 0;
#X connect 2 0 7 0;
#X connect 2 0 8 0;
#X connect 3 0 9 0;
#X connect 3 0 10 0;
#X connect 4 0 11 0;
#X connect 4 0 12 0;
#X connect 5 0 13 0;
#X connect 5 0 14 0;
#X connect 6 0 7 1;
#X connect 6 1 9 1;
#X connect 6 2 11 1;
#X connect 6 3 13 1;
#X connect 7 0 16 1;
#X connect 8 0 16 2;
#X connect 9 0 16 1;
#X connect 10 0 16 2;
#X connect 11 0 16 1;
#X connect 12 0 16 2;
#X connect 13 0 16 1;
#X connect 14 0 16 2;
#X connect 15 0 8 1;
#X connect 15 1 10 1;
#X connect 15 2 12 1;
#X connect 15 3 14 1;
#X connect 16 0 27 0;
#X connect 17 0 6 0;
#X connect 18 0 17 0;
#X connect 18 1 20 0;
#X connect 18 2 21 0;
#X connect 18 3 22 0;
#X connect 19 0 23 0;
#X connect 19 1 24 0;
#X connect 19 2 25 0;
#X connect 19 3 26 0;
#X connect 20 0 6 0;
#X connect 21 0 6 0;
#X connect 22 0 6 0;
#X connect 23 0 15 0;
#X connect 24 0 15 0;
#X connect 25 0 15 0;
#X connect 26 0 15 0;
#X connect 28 0 16 0;
#X coords 0 -1 1 1 174 58 2 40 38;
