#N canvas 43 116 1296 652 10;
#X obj 296 358 *~;
#X obj 353 358 *~;
#X obj 412 358 *~;
#X obj 469 358 *~;
#X obj 526 358 *~;
#X obj 583 358 *~;
#X obj 638 358 *~;
#X obj 696 358 *~;
#X obj 753 358 *~;
#X obj 810 358 *~;
#X obj 866 358 *~;
#X obj 923 358 *~;
#X obj 32 339 unpack f f f f f f f f f f f f;
#X obj 296 468 *~;
#X obj 353 468 *~;
#X obj 412 468 *~;
#X obj 469 468 *~;
#X obj 526 468 *~;
#X obj 583 468 *~;
#X obj 639 468 *~;
#X obj 695 468 *~;
#X obj 753 468 *~;
#X obj 810 468 *~;
#X obj 866 468 *~;
#X obj 923 468 *~;
#X obj 993 451 unpack f f f f f f f f f f f f;
#X obj 36 37 sel 0 1 2 3 4 5 6 7 8 9 10 11;
#X obj 993 33 sel 0 1 2 3 4 5 6 7 8 9 10 11;
#X obj 531 553 bitwiser;
#X obj 297 218 r~ reg0-tap0;
#X obj 354 238 r~ reg0-tap1;
#X obj 411 258 r~ reg0-tap2;
#X obj 468 278 r~ reg0-tap3;
#X obj 525 218 r~ reg1-tap0;
#X obj 582 238 r~ reg1-tap1;
#X obj 639 257 r~ reg1-tap2;
#X obj 696 278 r~ reg1-tap3;
#X obj 753 218 r~ reg2-tap0;
#X obj 810 238 r~ reg2-tap1;
#X obj 867 258 r~ reg2-tap2;
#X obj 924 278 r~ reg2-tap3;
#X obj 536 40 vradio 14 1 0 12 empty empty empty 0 -8 0 10 -228856
-1 -1 0;
#X obj 550 40 vradio 14 1 0 12 empty empty empty 0 -8 0 10 -262144
-1 -1 0;
#X obj 536 26 tgl 14 0 empty empty empty 17 7 0 10 -262130 -1 -1 0
1;
#X obj 530 585 s~ signal_router\$1-outlet;
#X obj 403 22 loadbang;
#X msg 403 50 0;
#X msg 36 313 1 0 0 0 0 0 0 0 0 0 0 0;
#X msg 69 271 0 0 1 0 0 0 0 0 0 0 0 0;
#X msg 136 187 0 0 0 0 0 0 1 0 0 0 0 0;
#X msg 152 166 0 0 0 0 0 0 0 1 0 0 0 0;
#X msg 169 145 0 0 0 0 0 0 0 0 1 0 0 0;
#X msg 186 124 0 0 0 0 0 0 0 0 0 1 0 0;
#X msg 202 103 0 0 0 0 0 0 0 0 0 0 1 0;
#X msg 219 82 0 0 0 0 0 0 0 0 0 0 0 1;
#X msg 119 208 0 0 0 0 0 1 0 0 0 0 0 0;
#X msg 102 229 0 0 0 0 1 0 0 0 0 0 0 0;
#X msg 86 250 0 0 0 1 0 0 0 0 0 0 0 0;
#X msg 52 292 0 1 0 0 0 0 0 0 0 0 0 0;
#X msg 993 383 1 0 0 0 0 0 0 0 0 0 0 0;
#X msg 1026 341 0 0 1 0 0 0 0 0 0 0 0 0;
#X msg 1093 257 0 0 0 0 0 0 1 0 0 0 0 0;
#X msg 1109 236 0 0 0 0 0 0 0 1 0 0 0 0;
#X msg 1126 215 0 0 0 0 0 0 0 0 1 0 0 0;
#X msg 1143 194 0 0 0 0 0 0 0 0 0 1 0 0;
#X msg 1159 173 0 0 0 0 0 0 0 0 0 0 1 0;
#X msg 1176 152 0 0 0 0 0 0 0 0 0 0 0 1;
#X msg 1076 278 0 0 0 0 0 1 0 0 0 0 0 0;
#X msg 1059 299 0 0 0 0 1 0 0 0 0 0 0 0;
#X msg 1043 320 0 0 0 1 0 0 0 0 0 0 0 0;
#X msg 1009 362 0 1 0 0 0 0 0 0 0 0 0 0;
#X connect 0 0 28 2;
#X connect 1 0 28 2;
#X connect 2 0 28 2;
#X connect 3 0 28 2;
#X connect 4 0 28 2;
#X connect 5 0 28 2;
#X connect 6 0 28 2;
#X connect 7 0 28 2;
#X connect 8 0 28 2;
#X connect 9 0 28 2;
#X connect 10 0 28 2;
#X connect 11 0 28 2;
#X connect 12 0 0 1;
#X connect 12 1 1 1;
#X connect 12 2 2 1;
#X connect 12 3 3 1;
#X connect 12 4 4 1;
#X connect 12 5 5 1;
#X connect 12 6 6 1;
#X connect 12 7 7 1;
#X connect 12 8 8 1;
#X connect 12 9 9 1;
#X connect 12 10 10 1;
#X connect 12 11 11 1;
#X connect 13 0 28 1;
#X connect 14 0 28 1;
#X connect 15 0 28 1;
#X connect 16 0 28 1;
#X connect 17 0 28 1;
#X connect 18 0 28 1;
#X connect 19 0 28 1;
#X connect 20 0 28 1;
#X connect 21 0 28 1;
#X connect 22 0 28 1;
#X connect 23 0 28 1;
#X connect 24 0 28 1;
#X connect 25 0 13 1;
#X connect 25 1 14 1;
#X connect 25 2 15 1;
#X connect 25 3 16 1;
#X connect 25 4 17 1;
#X connect 25 5 18 1;
#X connect 25 6 19 1;
#X connect 25 7 20 1;
#X connect 25 8 21 1;
#X connect 25 9 22 1;
#X connect 25 10 23 1;
#X connect 25 11 24 1;
#X connect 26 0 47 0;
#X connect 26 1 58 0;
#X connect 26 2 48 0;
#X connect 26 3 57 0;
#X connect 26 4 56 0;
#X connect 26 5 55 0;
#X connect 26 6 49 0;
#X connect 26 7 50 0;
#X connect 26 8 51 0;
#X connect 26 9 52 0;
#X connect 26 10 53 0;
#X connect 26 11 54 0;
#X connect 27 0 59 0;
#X connect 27 1 70 0;
#X connect 27 2 60 0;
#X connect 27 3 69 0;
#X connect 27 4 68 0;
#X connect 27 5 67 0;
#X connect 27 6 61 0;
#X connect 27 7 62 0;
#X connect 27 8 63 0;
#X connect 27 9 64 0;
#X connect 27 10 65 0;
#X connect 27 11 66 0;
#X connect 28 0 44 0;
#X connect 29 0 0 0;
#X connect 29 0 13 0;
#X connect 30 0 1 0;
#X connect 30 0 14 0;
#X connect 31 0 2 0;
#X connect 31 0 15 0;
#X connect 32 0 3 0;
#X connect 32 0 16 0;
#X connect 33 0 4 0;
#X connect 33 0 17 0;
#X connect 34 0 5 0;
#X connect 34 0 18 0;
#X connect 35 0 6 0;
#X connect 35 0 19 0;
#X connect 36 0 7 0;
#X connect 36 0 20 0;
#X connect 37 0 8 0;
#X connect 37 0 21 0;
#X connect 38 0 9 0;
#X connect 38 0 22 0;
#X connect 39 0 10 0;
#X connect 39 0 23 0;
#X connect 40 0 11 0;
#X connect 40 0 24 0;
#X connect 41 0 27 0;
#X connect 42 0 26 0;
#X connect 43 0 28 0;
#X connect 45 0 46 0;
#X connect 46 0 43 0;
#X connect 46 0 41 0;
#X connect 46 0 42 0;
#X connect 47 0 12 0;
#X connect 48 0 12 0;
#X connect 49 0 12 0;
#X connect 50 0 12 0;
#X connect 51 0 12 0;
#X connect 52 0 12 0;
#X connect 53 0 12 0;
#X connect 54 0 12 0;
#X connect 55 0 12 0;
#X connect 56 0 12 0;
#X connect 57 0 12 0;
#X connect 58 0 12 0;
#X connect 59 0 25 0;
#X connect 60 0 25 0;
#X connect 61 0 25 0;
#X connect 62 0 25 0;
#X connect 63 0 25 0;
#X connect 64 0 25 0;
#X connect 65 0 25 0;
#X connect 66 0 25 0;
#X connect 67 0 25 0;
#X connect 68 0 25 0;
#X connect 69 0 25 0;
#X connect 70 0 25 0;
#X coords 0 -1 1 1 28 182 2 536 26;
