#N canvas 116 272 855 473 10;
#X obj 98 38 hradio 29 1 0 2 empty empty empty 0 -8 0 10 -228856 -1
-1 0;
#X obj 98 67 hradio 29 1 0 2 empty empty empty 0 -8 0 10 -262144 -1
-1 1;
#X obj 59 237 r~ signal_router0-outlet;
#X obj 252 237 r~ signal_router1-outlet;
#X obj 58 299 *~;
#X obj 94 299 *~;
#X obj 251 299 *~;
#X obj 287 299 *~;
#X obj 331 414 bitwiser;
#X obj 45 45 vradio 22 1 0 2 empty empty empty 0 -8 0 10 -262144 -1
-1 0;
#X text 70 49 ->;
#X text 70 72 XOR;
#X obj 45 1 loadbang;
#X msg 129 3 0;
#X obj 332 445 s~ four_xor_send;
#X obj 263 67 sel 0 1;
#X obj 482 96 sel 0 1;
#X msg 286 135 0 1;
#X msg 263 156 1 0;
#X msg 505 165 0 1;
#X msg 482 186 1 0;
#X obj 263 177 unpack f f;
#X obj 482 206 unpack f f;
#X connect 0 0 15 0;
#X connect 1 0 16 0;
#X connect 2 0 4 0;
#X connect 2 0 5 0;
#X connect 3 0 6 0;
#X connect 3 0 7 0;
#X connect 4 0 8 1;
#X connect 5 0 8 2;
#X connect 6 0 8 1;
#X connect 7 0 8 2;
#X connect 8 0 14 0;
#X connect 9 0 8 0;
#X connect 12 0 13 0;
#X connect 13 0 0 0;
#X connect 13 0 9 0;
#X connect 13 0 1 0;
#X connect 15 0 18 0;
#X connect 15 1 17 0;
#X connect 16 0 20 0;
#X connect 16 1 19 0;
#X connect 17 0 21 0;
#X connect 18 0 21 0;
#X connect 19 0 22 0;
#X connect 20 0 22 0;
#X connect 21 0 4 1;
#X connect 21 1 6 1;
#X connect 22 0 5 1;
#X connect 22 1 7 1;
#X coords 0 -1 1 1 116 58 2 40 38;
