#N canvas 297 97 789 687 10;
#X obj 145 232 soundfiler;
#X obj 145 148 openpanel;
#X obj 145 437 *~;
#X obj 145 416 line~;
#X msg 145 355 1 \$1;
#X obj 145 334 t f b;
#X msg 177 395 0;
#X obj 210 301 bng 15 250 50 0 empty empty empty 17 7 0 10 -262144
-1 -1;
#X floatatom 315 529 5 0 0 0 - - -, f 5;
#X msg 145 295 set \$1;
#X floatatom 145 316 5 0 0 0 - - -, f 5;
#X obj 145 274 / 44.1;
#X obj 412 244 table \$0array;
#X obj 145 252 t f f b;
#X obj 145 190 pack s f;
#X msg 145 211 read -resize \$1 \$2array;
#X obj 145 123 t b b;
#X obj 177 169 f \$0;
#X msg 260 248 set \$1;
#X floatatom 260 269 5 0 0 0 - - -, f 5;
#X msg 260 287 \; \$1array normalize;
#X obj 145 104 bng 15 250 50 0 empty empty empty 17 7 0 10 -262144
-1 -1;
#X obj 145 463 tabread4~ \$0array;
#X obj 315 547 delread~ \$0-delayline;
#X obj 315 486 loadbang;
#X msg 315 508 1000;
#X obj 316 633 delwrite~ \$0-delayline 5000;
#X obj 145 49 inlet;
#X text 117 31 Load Sound File;
#X obj 210 69 inlet;
#X text 205 50 Play Sound File;
#X obj 315 95 inlet;
#X text 285 75 Change Delay Time;
#X obj 334 159 inlet;
#X obj 316 588 *~;
#X text 330 139 Delay Feedback On/Off;
#X obj 52 27 inlet;
#X obj 52 152 t l b;
#X text 7 7 Load Specific Sound File;
#X obj 144 564 outlet~;
#X connect 0 0 13 0;
#X connect 1 0 14 0;
#X connect 2 0 22 0;
#X connect 3 0 2 0;
#X connect 4 0 3 0;
#X connect 5 0 4 0;
#X connect 5 1 6 0;
#X connect 6 0 3 0;
#X connect 7 0 10 0;
#X connect 8 0 23 0;
#X connect 9 0 10 0;
#X connect 10 0 5 0;
#X connect 11 0 9 0;
#X connect 13 0 11 0;
#X connect 13 1 2 1;
#X connect 13 2 19 0;
#X connect 14 0 15 0;
#X connect 15 0 0 0;
#X connect 16 0 1 0;
#X connect 16 1 17 0;
#X connect 17 0 14 1;
#X connect 17 0 18 0;
#X connect 18 0 19 0;
#X connect 19 0 20 0;
#X connect 21 0 16 0;
#X connect 22 0 39 0;
#X connect 23 0 34 0;
#X connect 24 0 25 0;
#X connect 25 0 8 0;
#X connect 27 0 21 0;
#X connect 29 0 7 0;
#X connect 31 0 8 0;
#X connect 33 0 34 1;
#X connect 34 0 26 0;
#X connect 36 0 37 0;
#X connect 37 0 14 0;
#X connect 37 1 17 0;
