#N canvas 84 120 1249 592 10;
#X floatatom 265 38 5 0 0 0 - - -, f 5;
#X obj 293 74 tgl 15 0 empty empty empty 17 7 0 10 -262144 -1 -1 0
1;
#X obj 293 121 metro 50;
#X obj 79 127 shift_register_sixteen_bit~;
#X obj 92 483 snapshot~;
#X obj 104 462 snapshot~;
#X obj 117 441 snapshot~;
#X obj 78 504 snapshot~;
#X floatatom 248 521 5 0 0 0 - - -, f 5;
#X floatatom 286 500 5 0 0 0 - - -, f 5;
#X floatatom 324 479 5 0 0 0 - - -, f 5;
#X floatatom 362 458 5 0 0 0 - - -, f 5;
#X obj 141 399 snapshot~;
#X obj 153 378 snapshot~;
#X obj 166 357 snapshot~;
#X obj 127 420 snapshot~;
#X obj 191 313 snapshot~;
#X obj 203 292 snapshot~;
#X obj 216 271 snapshot~;
#X obj 177 334 snapshot~;
#X obj 240 229 snapshot~;
#X obj 252 208 snapshot~;
#X obj 265 187 snapshot~;
#X obj 226 250 snapshot~;
#X floatatom 400 437 5 0 0 0 - - -, f 5;
#X floatatom 438 416 5 0 0 0 - - -, f 5;
#X floatatom 476 395 5 0 0 0 - - -, f 5;
#X floatatom 514 374 5 0 0 0 - - -, f 5;
#X floatatom 552 351 5 0 0 0 - - -, f 5;
#X floatatom 590 330 5 0 0 0 - - -, f 5;
#X floatatom 628 309 5 0 0 0 - - -, f 5;
#X floatatom 666 288 5 0 0 0 - - -, f 5;
#X floatatom 704 267 5 0 0 0 - - -, f 5;
#X floatatom 742 246 5 0 0 0 - - -, f 5;
#X floatatom 780 225 5 0 0 0 - - -, f 5;
#X floatatom 818 204 5 0 0 0 - - -, f 5;
#X obj 79 38 noise~;
#X obj 759 357 shift_register_sixteen_bit~;
#X obj 980 324 shift_register_sixteen_bit~;
#X obj 756 548 dac~;
#X floatatom 948 195 5 0 0 0 - - -, f 5;
#X obj 956 147 bng 15 250 50 0 empty empty empty 17 7 0 10 -262144
-1 -1;
#X obj 881 438 expr~ ($v1 ^ $v2);
#X floatatom 857 276 5 0 0 0 - - -, f 5;
#X obj 760 328 delread~ thisone 0;
#X obj 736 438 expr~ ($v1 ^ $v2);
#X obj 785 489 expr~ ($v1 ^ $v2);
#X msg 858 252 0;
#X msg 895 247 100;
#X msg 884 214 400;
#X msg 881 179 800;
#X msg 899 287 10;
#X msg 865 129 1600;
#X obj 829 528 delwrite~ thisone 1600;
#X connect 0 0 3 1;
#X connect 1 0 2 0;
#X connect 2 0 4 0;
#X connect 2 0 5 0;
#X connect 2 0 6 0;
#X connect 2 0 7 0;
#X connect 2 0 15 0;
#X connect 2 0 12 0;
#X connect 2 0 13 0;
#X connect 2 0 14 0;
#X connect 2 0 19 0;
#X connect 2 0 16 0;
#X connect 2 0 17 0;
#X connect 2 0 18 0;
#X connect 2 0 23 0;
#X connect 2 0 20 0;
#X connect 2 0 21 0;
#X connect 2 0 22 0;
#X connect 3 0 7 0;
#X connect 3 1 4 0;
#X connect 3 2 5 0;
#X connect 3 3 6 0;
#X connect 3 4 15 0;
#X connect 3 5 12 0;
#X connect 3 6 13 0;
#X connect 3 7 14 0;
#X connect 3 8 19 0;
#X connect 3 9 16 0;
#X connect 3 10 17 0;
#X connect 3 11 18 0;
#X connect 3 12 23 0;
#X connect 3 13 20 0;
#X connect 3 14 21 0;
#X connect 3 15 22 0;
#X connect 4 0 9 0;
#X connect 5 0 10 0;
#X connect 6 0 11 0;
#X connect 7 0 8 0;
#X connect 12 0 25 0;
#X connect 13 0 26 0;
#X connect 14 0 27 0;
#X connect 15 0 24 0;
#X connect 16 0 29 0;
#X connect 17 0 30 0;
#X connect 18 0 31 0;
#X connect 19 0 28 0;
#X connect 20 0 33 0;
#X connect 21 0 34 0;
#X connect 22 0 35 0;
#X connect 23 0 32 0;
#X connect 36 0 3 0;
#X connect 37 9 45 0;
#X connect 37 10 45 1;
#X connect 37 14 42 0;
#X connect 37 15 42 1;
#X connect 40 0 37 1;
#X connect 40 0 38 1;
#X connect 41 0 40 0;
#X connect 42 0 46 1;
#X connect 43 0 44 0;
#X connect 44 0 37 0;
#X connect 45 0 46 0;
#X connect 46 0 39 0;
#X connect 46 0 39 1;
#X connect 46 0 53 0;
#X connect 47 0 44 0;
#X connect 48 0 44 0;
#X connect 49 0 44 0;
#X connect 50 0 44 0;
#X connect 51 0 44 0;
#X connect 52 0 44 0;
