#N canvas 636 410 450 300 10;
#X obj 168 208 snapshot~;
#X obj 168 240 print;
#X floatatom 269 82 5 0 0 0 - - -, f 5;
#X floatatom 235 59 5 0 0 0 - - -, f 5;
#X floatatom 201 37 5 0 0 0 - - -, f 5;
#X obj 167 117 shift_register~;
#X obj 166 16 sig~ 0;
#X connect 0 0 1 0;
#X connect 2 0 5 3;
#X connect 3 0 5 2;
#X connect 4 0 5 1;
#X connect 5 0 0 0;
#X connect 6 0 5 0;
