#N canvas 396 197 717 468 10;
#X obj 104 139 signal_router_sixteen_bit;
#X obj 109 84 shift_register_sixteen_bit~;
#X obj 59 29 hradio 15 1 0 16 empty empty empty 0 -8 0 10 -262144 -1
-1 8;
#X obj 59 44 hradio 15 1 0 16 empty empty empty 0 -8 0 10 -262144 -1
-1 0;
#X obj 404 139 signal_router_sixteen_bit;
#X obj 409 84 shift_register_sixteen_bit~;
#X obj 359 29 hradio 15 1 0 16 empty empty empty 0 -8 0 10 -262144
-1 -1 15;
#X obj 359 44 hradio 15 1 0 16 empty empty empty 0 -8 0 10 -262144
-1 -1 0;
#X obj 122 62 delread~ thisone 200;
#X floatatom 641 58 5 0 0 0 - - -, f 5;
#X obj 262 256 dac~;
#X floatatom 320 58 5 0 0 0 - - -, f 5;
#X obj 274 214 expr~ ($v1 ^ $v2);
#X msg 151 6 50;
#X obj 436 259 delwrite~ thisone 900;
#X connect 0 0 5 0;
#X connect 0 0 12 0;
#X connect 1 0 0 2;
#X connect 1 1 0 3;
#X connect 1 2 0 4;
#X connect 1 3 0 5;
#X connect 1 4 0 6;
#X connect 1 5 0 7;
#X connect 1 6 0 8;
#X connect 1 7 0 9;
#X connect 1 8 0 10;
#X connect 1 9 0 11;
#X connect 1 10 0 12;
#X connect 1 11 0 13;
#X connect 1 12 0 14;
#X connect 1 13 0 15;
#X connect 1 14 0 16;
#X connect 1 15 0 17;
#X connect 2 0 0 0;
#X connect 3 0 0 1;
#X connect 4 0 12 1;
#X connect 5 0 4 2;
#X connect 5 1 4 3;
#X connect 5 2 4 4;
#X connect 5 3 4 5;
#X connect 5 4 4 6;
#X connect 5 5 4 7;
#X connect 5 6 4 8;
#X connect 5 7 4 9;
#X connect 5 8 4 10;
#X connect 5 9 4 11;
#X connect 5 10 4 12;
#X connect 5 11 4 13;
#X connect 5 12 4 14;
#X connect 5 13 4 15;
#X connect 5 14 4 16;
#X connect 5 15 4 17;
#X connect 6 0 4 0;
#X connect 7 0 4 1;
#X connect 8 0 1 0;
#X connect 9 0 5 1;
#X connect 11 0 1 1;
#X connect 12 0 10 0;
#X connect 12 0 10 1;
#X connect 12 0 14 0;
#X connect 13 0 8 0;
